<?xml version="1.0" encoding="UTF-8"?><svg id="Capa_2" xmlns="http://www.w3.org/2000/svg" xmlns:xlink="http://www.w3.org/1999/xlink" viewBox="0 0 198.93 84.5"><defs><style>.cls-1{fill:none;}.cls-2{clip-path:url(#clippath);}.cls-3{fill:#f32735;}.cls-4{fill:#2eb3ab;}.cls-5{fill:#a9c82f;}.cls-6{fill:#472b75;}</style><clipPath id="clippath"><path class="cls-1" d="m25.7,3.75c.17.1.32.22.43.37s.17.32.17.52c0,.16-.04.32-.13.5l-2.09,3.56c-.24.33-.5.5-.78.5-.09,0-.19-.02-.3-.05-.12-.04-.23-.09-.34-.16-.91-.65-1.88-1.15-2.91-1.51-1.04-.36-2.14-.54-3.3-.54-1.47,0-2.81.28-4.04.83-1.22.55-2.28,1.31-3.17,2.25s-1.59,2.06-2.08,3.34c-.5,1.28-.75,2.65-.75,4.12s.25,2.82.75,4.09c.5,1.27,1.19,2.38,2.08,3.33.89.95,1.95,1.7,3.17,2.24,1.22.55,2.57.82,4.04.82,1.17,0,2.28-.18,3.33-.54s2.03-.86,2.92-1.51c.12-.09.23-.14.36-.17.12-.03.23-.05.31-.06.24,0,.5.16.75.47l2.14,3.6c.09.17.13.33.13.47,0,.2-.06.37-.18.5-.12.13-.26.25-.42.37-1.35.91-2.81,1.61-4.37,2.1s-3.2.74-4.93.74c-1.53,0-2.99-.19-4.39-.58-1.4-.39-2.72-.94-3.94-1.66-1.22-.72-2.33-1.58-3.33-2.58-1-1-1.86-2.11-2.58-3.32-.72-1.21-1.27-2.52-1.66-3.93-.39-1.4-.58-2.87-.58-4.39s.19-2.99.58-4.39.94-2.72,1.66-3.95c.72-1.23,1.58-2.35,2.58-3.36s2.11-1.87,3.33-2.58c1.22-.71,2.54-1.27,3.94-1.66s2.87-.59,4.39-.59c1.71,0,3.34.24,4.88.72,1.54.48,2.99,1.18,4.34,2.08Z"/></clipPath></defs><g id="Capa_1-2"><path class="cls-6" d="m30.23,1.27c0-.37.1-.67.3-.91.2-.24.5-.36.91-.36h3.71c.28,0,.55.12.8.36.25.24.37.54.37.91v32.38c0,.42-.12.74-.35.95s-.55.32-.94.32h-3.54c-.45,0-.77-.11-.96-.32s-.29-.53-.29-.95V1.27Z"/><path class="cls-6" d="m64.07,34.1c0,.16-.05.28-.16.36-.11.08-.24.15-.39.18-.16.04-.33.06-.51.06-.18,0-.35.01-.49.01h-2.14c-.41,0-.71-.13-.91-.39-.2-.26-.33-.56-.4-.9l-.23-1.93c-.31.47-.7.92-1.17,1.35-.47.43-1.02.81-1.65,1.15-.64.33-1.37.6-2.19.79s-1.76.3-2.81.3c-1.68,0-3.17-.3-4.45-.9-1.29-.6-2.36-1.42-3.23-2.46s-1.53-2.26-1.98-3.68c-.45-1.41-.68-2.93-.68-4.56v-14.14c0-.51.12-.89.36-1.16s.59-.39,1.04-.39h3.22c.57,0,.94.11,1.13.32s.29.59.29,1.12v14.14c0,.75.12,1.48.35,2.2.23.71.58,1.35,1.05,1.92.47.57,1.05,1.02,1.75,1.36.7.34,1.52.51,2.45.51.65,0,1.33-.11,2.04-.34.71-.23,1.35-.57,1.93-1.04.58-.47,1.06-1.05,1.44-1.75.38-.7.57-1.52.57-2.45v-13.76c0-.25.01-.51.04-.77.03-.26.09-.5.18-.72.09-.22.22-.4.38-.53.16-.13.39-.2.67-.2h3.5c.47,0,.81.11,1.03.34.22.23.33.54.33.96v24.38c0,.28-.11.5-.34.64Z"/><path class="cls-6" d="m74.57,33.65c-.13.42-.26.74-.41.95s-.43.32-.86.32h-3.2c-.89,0-1.34-.42-1.34-1.27V1.27c0-.37.13-.67.38-.91.25-.24.54-.36.87-.36h3.5c.42,0,.76.12,1,.37.24.25.36.55.36.9v9.73c1.02-1.05,2.19-1.88,3.51-2.5,1.32-.62,2.84-.93,4.55-.93,1.91,0,3.69.36,5.33,1.09,1.65.73,3.08,1.72,4.3,2.98s2.18,2.73,2.87,4.42,1.04,3.5,1.04,5.44-.35,3.73-1.04,5.42c-.69,1.69-1.65,3.16-2.87,4.42-1.22,1.26-2.66,2.25-4.3,2.98-1.65.73-3.42,1.09-5.33,1.09-.83,0-1.63-.09-2.4-.28-.76-.18-1.49-.43-2.18-.75-.69-.32-1.34-.7-1.94-1.13-.6-.44-1.15-.91-1.64-1.4l-.19,1.8Zm15.95-12.15c0-1.12-.2-2.18-.59-3.2-.4-1.02-.95-1.91-1.65-2.68s-1.54-1.38-2.5-1.84c-.96-.46-2-.69-3.12-.69s-2.19.23-3.19.69c-1,.46-1.87,1.07-2.61,1.84s-1.33,1.67-1.75,2.68-.64,2.08-.64,3.2v.15c.01,1.12.24,2.17.68,3.15.44.98,1.02,1.84,1.76,2.59.73.74,1.59,1.33,2.58,1.76.98.43,2.04.65,3.17.65s2.16-.22,3.12-.66c.96-.44,1.79-1.03,2.5-1.78.71-.75,1.26-1.63,1.65-2.64.4-1.01.59-2.08.59-3.21Z"/><g class="cls-2"><rect class="cls-4" x="-3.42" y="-.49" width="35.2" height="18.54"/><rect class="cls-5" x="-3.42" y="17.97" width="35.2" height="16.99"/></g><path class="cls-6" d="m109.87,78.65l-16.46-37.17c-1.02-2.27-2.68-3.42-4.94-3.42h-.61c-2.88,0-4.31,1.86-5.01,3.43l-15.68,35.42-.78,1.75c-.13.3-.27.62-.37.94-.08.27-.14.55-.14.8,0,2.07,1.59,3.7,3.63,3.7,1.67,0,3.03-.93,3.73-2.54l3.6-8.46h22.31l3.47,8.12c.84,1.93,2.13,2.87,3.92,2.87,2.11,0,3.76-1.68,3.76-3.83,0-.45-.14-.96-.44-1.61m-30.16-12.41l8.29-19.73,8.29,19.73h-16.57Z"/><path class="cls-6" d="m61.22,72.38c-.84,0-1.68.31-2.36.88-3.56,2.83-6.74,3.98-10.99,3.98-8.47,0-14.85-6.88-14.85-16v-.13c0-4.26,1.48-8.22,4.16-11.17,2.76-3.03,6.55-4.7,10.69-4.7,3.74,0,7.01,1.14,10.3,3.58.68.43,1.38.81,2.45.81,2.22,0,3.97-1.71,3.97-3.9,0-1.49-.81-2.62-1.56-3.19-4.19-3.11-8.99-4.56-15.09-4.56-13.37,0-23.46,10-23.46,23.26v.13c0,6.29,2.33,12.12,6.56,16.41,4.27,4.33,10.13,6.71,16.49,6.71s11.56-1.74,16.03-5.65c.12-.1.26-.24.4-.39.42-.48.88-1.2.95-2.18,0-.08,0-.17,0-.26,0-1.97-1.69-3.63-3.7-3.63"/><path class="cls-6" d="m117.47,84.09c2.22,0,3.97-1.71,3.97-3.9v-27.39l11.1,17.11c.97,1.45,2,2.1,3.34,2.1s2.38-.65,3.35-2.11l11.23-17.3v27.46c0,2.22,1.78,4.03,3.97,4.03s4.03-1.77,4.03-4.03v-37.5c0-2.26-1.77-4.03-4.03-4.03h-1.15c-1.65,0-2.78.64-3.67,2.08l-13.6,22.11-13.53-22.04c-.87-1.42-2.12-2.15-3.73-2.15h-1.15c-2.26,0-4.03,1.77-4.03,4.03v37.64c0,2.19,1.71,3.9,3.9,3.9"/><path class="cls-6" d="m195.44,76.77h-22.54v-12.23h19.17c1.93,0,3.49-1.54,3.49-3.43s-1.57-3.49-3.49-3.49h-19.17v-11.9h22.2c1.93,0,3.49-1.54,3.49-3.43s-1.57-3.49-3.49-3.49h-26.17c-2.26,0-4.03,1.77-4.03,4.03v36.83c0,2.26,1.77,4.03,4.03,4.03h26.51c1.93,0,3.49-1.54,3.49-3.43s-1.57-3.49-3.49-3.49"/><path class="cls-6" d="m143.36,20.29c0,4.01-3.25,7.26-7.26,7.26s-7.26-3.25-7.26-7.26,3.25-7.26,7.26-7.26,7.26,3.25,7.26,7.26"/><path class="cls-3" d="m123.28,30.91h25.65c1.59,0,2.54,1.76,1.67,3.09l-12.82,19.62c-.79,1.21-2.55,1.21-3.34,0l-12.82-19.62c-.87-1.33.08-3.09,1.67-3.09"/></g></svg>