<?xml version="1.0" encoding="UTF-8"?><svg id="Capa_2" xmlns="http://www.w3.org/2000/svg" xmlns:xlink="http://www.w3.org/1999/xlink" viewBox="0 0 211.04 47.76"><defs><style>.cls-1{fill:none;}.cls-2{clip-path:url(#clippath);}.cls-3{fill:#2eb3ab;}.cls-4{fill:#a9c82f;}.cls-5{fill:#472b75;}</style><clipPath id="clippath"><path class="cls-1" d="m80.99,42.82c0,.32-.07.59-.2.8-.13.21-.31.37-.53.48-.22.12-.46.2-.74.24-.28.04-.57.07-.88.07h-3.37c-.58,0-.98-.15-1.2-.46s-.39-.69-.5-1.16l-.16-2.29c-.63.63-1.33,1.22-2.09,1.77-.76.55-1.59,1.02-2.47,1.43s-1.82.72-2.8.94c-.99.22-2,.34-3.05.34-1.62,0-3.18-.21-4.68-.63s-2.91-1.02-4.22-1.78c-1.31-.76-2.5-1.69-3.57-2.76-1.07-1.08-1.99-2.27-2.75-3.59s-1.36-2.72-1.78-4.23c-.42-1.51-.63-3.08-.63-4.72s.21-3.21.63-4.72c.42-1.51,1.02-2.92,1.78-4.23.76-1.31,1.68-2.5,2.75-3.57s2.26-1.99,3.57-2.75c1.31-.76,2.72-1.36,4.22-1.78,1.5-.42,3.06-.63,4.68-.63,1.15,0,2.25.12,3.29.36,1.04.24,2.02.58,2.93,1.02.91.44,1.75.97,2.52,1.59s1.47,1.3,2.1,2.04l.38-2.88c.09-.32.18-.59.26-.8.08-.21.18-.37.3-.5.12-.12.27-.21.45-.26s.4-.07.67-.07h2.7c.29,0,.58.03.86.08.29.05.55.14.78.26.23.12.42.28.55.49.13.21.2.46.2.77v31.14Zm-28.04-15.56c0,1.44.25,2.8.75,4.08.5,1.29,1.2,2.41,2.1,3.38.9.97,1.96,1.74,3.17,2.31,1.21.57,2.54.85,3.98.85s2.82-.28,4.08-.85c1.27-.57,2.37-1.33,3.3-2.31.93-.97,1.67-2.1,2.21-3.38.54-1.29.81-2.65.81-4.08s-.27-2.77-.81-4.06c-.54-1.29-1.28-2.41-2.21-3.38-.94-.97-2.04-1.74-3.3-2.32-1.27-.58-2.63-.86-4.08-.86s-2.76.29-3.98.86c-1.21.58-2.27,1.35-3.17,2.32-.9.97-1.6,2.1-2.1,3.38-.5,1.29-.75,2.64-.75,4.06Z"/></clipPath></defs><g id="Capa_1-2"><path class="cls-5" d="m113.11,40.5c-.63.63-1.33,1.22-2.09,1.78-.76.56-1.58,1.04-2.45,1.44s-1.8.72-2.78.96-2,.35-3.06.35c-2.43,0-4.69-.46-6.78-1.39-2.09-.93-3.92-2.19-5.47-3.79-1.56-1.6-2.77-3.47-3.65-5.62-.88-2.15-1.32-4.44-1.32-6.89s.44-4.77,1.32-6.92c.88-2.15,2.1-4.02,3.65-5.62,1.55-1.6,3.38-2.86,5.47-3.79,2.09-.93,4.35-1.39,6.78-1.39,2.19,0,4.12.39,5.8,1.17,1.67.78,3.15,1.85,4.45,3.19V1.62c0-.47.14-.85.43-1.16.29-.3.7-.46,1.24-.46h4.42c.41,0,.8.15,1.16.45.36.3.54.69.54,1.17v41.17c0,1.08-.58,1.62-1.73,1.62h-4.04c-.54,0-.91-.13-1.11-.4-.2-.27-.38-.67-.54-1.21l-.24-2.29Zm-20.03-13.16c0,1.44.25,2.8.75,4.08.5,1.29,1.2,2.4,2.1,3.36.9.95,1.96,1.71,3.17,2.27,1.21.56,2.54.83,3.98.83s2.76-.27,4.02-.82c1.26-.55,2.35-1.29,3.29-2.24.93-.94,1.68-2.04,2.22-3.29.55-1.25.84-2.58.88-4v-.19c0-1.42-.27-2.78-.81-4.07-.54-1.29-1.28-2.43-2.21-3.41-.94-.98-2.04-1.76-3.3-2.35-1.27-.58-2.63-.88-4.08-.88s-2.76.29-3.98.88c-1.21.58-2.27,1.37-3.17,2.35-.9.98-1.6,2.12-2.1,3.41-.5,1.29-.75,2.65-.75,4.07Z"/><path class="cls-5" d="m153.99,40.63c-1.58,1.35-3.31,2.41-5.19,3.18-1.88.77-3.94,1.16-6.19,1.16-2.43,0-4.73-.46-6.9-1.38-2.18-.92-4.08-2.17-5.72-3.78-1.64-1.6-2.94-3.47-3.9-5.62-.96-2.15-1.44-4.46-1.44-6.94,0-1.6.2-3.15.59-4.64.4-1.49.96-2.89,1.69-4.19.73-1.3,1.61-2.5,2.66-3.59,1.04-1.09,2.21-2.02,3.49-2.79,1.29-.77,2.68-1.37,4.18-1.79,1.5-.42,3.09-.63,4.76-.63,1.37,0,2.71.17,4.04.5,1.33.33,2.59.8,3.79,1.42s2.31,1.35,3.36,2.22c1.04.87,1.96,1.86,2.75,2.95,1.08,1.51,1.87,3.14,2.37,4.88.5,1.74.75,3.68.75,5.8,0,.52-.02.96-.07,1.31-.04.35-.16.63-.34.85s-.45.37-.81.47c-.36.1-.86.15-1.51.15h-23.92c.23,1.29.68,2.44,1.33,3.44.66,1,1.43,1.84,2.33,2.54.9.69,1.88,1.21,2.94,1.56s2.12.53,3.18.53c.81,0,1.59-.08,2.33-.24.75-.16,1.44-.38,2.09-.65.65-.27,1.25-.58,1.79-.93.55-.35,1.03-.71,1.44-1.09,0-.02,0-.03.03-.03.22-.2.42-.35.62-.47.2-.12.4-.18.62-.18.16,0,.35.05.55.16.21.11.41.29.61.54.49.59.9,1.09,1.24,1.48s.62.73.84,1,.37.5.47.7c.1.2.15.4.15.59,0,.5-.34,1.01-1.02,1.51Zm-11.97-24.32c-1.06,0-2.09.19-3.1.58-1.01.39-1.93.91-2.76,1.58s-1.56,1.45-2.18,2.35c-.62.9-1.07,1.87-1.36,2.91h19.09c-.29-1.1-.72-2.1-1.31-3.01-.58-.91-1.29-1.69-2.12-2.35-.83-.66-1.77-1.16-2.83-1.52s-2.2-.54-3.42-.54Z"/><path class="cls-5" d="m163.45,1.62c0-.47.13-.85.38-1.16.25-.3.64-.46,1.16-.46h4.72c.36,0,.7.15,1.01.46.31.31.47.69.47,1.16v41.17c0,.54-.15.94-.44,1.21-.3.27-.7.4-1.2.4h-4.5c-.58,0-.98-.13-1.23-.4-.24-.27-.36-.67-.36-1.21V1.62Z"/><path class="cls-5" d="m211.04,42.82c0,.32-.07.59-.2.8-.13.21-.31.37-.53.48-.22.12-.46.2-.74.24-.28.04-.57.07-.88.07h-3.37c-.58,0-.98-.15-1.2-.46s-.39-.69-.5-1.16l-.16-2.29c-.63.63-1.33,1.22-2.09,1.77-.76.55-1.59,1.02-2.47,1.43s-1.82.72-2.8.94c-.99.22-2,.34-3.05.34-1.62,0-3.18-.21-4.68-.63s-2.91-1.02-4.22-1.78c-1.31-.76-2.5-1.69-3.57-2.76-1.07-1.08-1.99-2.27-2.75-3.59s-1.36-2.72-1.78-4.23c-.42-1.51-.63-3.08-.63-4.72s.21-3.21.63-4.72c.42-1.51,1.02-2.92,1.78-4.23.76-1.31,1.68-2.5,2.75-3.57s2.26-1.99,3.57-2.75c1.31-.76,2.72-1.36,4.22-1.78,1.5-.42,3.06-.63,4.68-.63,1.15,0,2.25.12,3.29.36,1.04.24,2.02.58,2.93,1.02.91.44,1.75.97,2.52,1.59s1.47,1.3,2.1,2.04l.38-2.88c.09-.32.18-.59.26-.8.08-.21.18-.37.3-.5.12-.12.27-.21.45-.26s.4-.07.67-.07h2.7c.29,0,.58.03.86.08.29.05.55.14.78.26.23.12.42.28.55.49.13.21.2.46.2.77v31.14Zm-28.04-15.56c0,1.44.25,2.8.75,4.08.5,1.29,1.2,2.41,2.1,3.38.9.97,1.96,1.74,3.17,2.31,1.21.57,2.54.85,3.98.85s2.82-.28,4.08-.85c1.27-.57,2.37-1.33,3.3-2.31.93-.97,1.67-2.1,2.21-3.38.54-1.29.81-2.65.81-4.08s-.27-2.77-.81-4.06c-.54-1.29-1.28-2.41-2.21-3.38-.94-.97-2.04-1.74-3.3-2.32-1.27-.58-2.63-.86-4.08-.86s-2.76.29-3.98.86c-1.21.58-2.27,1.35-3.17,2.32-.9.97-1.6,2.1-2.1,3.38-.5,1.29-.75,2.64-.75,4.06Z"/><g class="cls-2"><rect class="cls-3" x="38.76" y="7.56" width="51.25" height="21.01"/><rect class="cls-4" x="38.76" y="28.48" width="51.25" height="19.26"/></g><circle class="cls-4" cx="20.94" cy="26.82" r="20.94"/><path class="cls-5" d="m15.65,15.88c.68-.58,1.31-.54,1.89.14l4.07,4.73,4.82-4.15c.71-.61,1.38-.55,2.01.19l3.24,3.76c.58.68.52,1.32-.19,1.93l-4.82,4.15,4.09,4.75c.24.28.36.59.35.94,0,.35-.17.67-.49.95l-3.55,3.06c-.26.23-.59.34-.98.36-.39.01-.72-.13-.98-.44l-4.09-4.75-4.87,4.19c-.28.24-.59.36-.93.36-.35,0-.66-.17-.96-.5l-3.24-3.76c-.23-.26-.35-.59-.37-.99-.02-.4.12-.73.43-.99l4.87-4.19-4.07-4.73c-.58-.68-.51-1.33.21-1.95l3.55-3.06Z"/></g></svg>