<svg xmlns="http://www.w3.org/2000/svg" width="79.023" height="79.023" viewBox="0 0 79.023 79.023">
  <g id="Grupo_879" data-name="Grupo 879" transform="translate(-112.543 0.149)">
    <circle id="Elipse_4" data-name="Elipse 4" cx="39.012" cy="39.012" r="39.012" transform="translate(113.043 0.351)" fill="none" stroke="#462b74" stroke-miterlimit="10" stroke-width="1"/>
    <g id="Grupo_845" data-name="Grupo 845" transform="translate(138.258 23.037)">
      <path id="Trazado_1575" data-name="Trazado 1575" d="M221.738,55.211v5.662c0,.254,0,.508,0,.763a1.956,1.956,0,0,1-1.923,1.929c-.414.016-.83,0-1.246,0-.053,0-.107,0-.161,0-.337,0-.364.023-.364.368,0,.91,0,1.82,0,2.73,0,.508.007,1.017,0,1.525a1.819,1.819,0,0,1-.9,1.609,2.01,2.01,0,0,1-3.082-1.482c-.042-.562-.022-1.123-.03-1.684-.013-.883,0-1.767,0-2.65,0-.08,0-.161-.008-.241-.011-.122-.057-.17-.171-.179-.067,0-.134,0-.2,0l-2.05-.011c-.027,0-.054,0-.081,0-.168.009-.215.052-.225.213-.006.093-.008.187-.008.281,0,.763.006,1.525.013,2.288,0,.454.015.909.026,1.364a3.93,3.93,0,0,1-.044.76,1.935,1.935,0,0,1-1.871,1.626,1.962,1.962,0,0,1-1.944-1.225,1.615,1.615,0,0,1-.145-.7c0-.522-.007-1.043-.013-1.565-.007-.64-.018-1.28-.023-1.92,0-.225.013-.451.014-.677a1.879,1.879,0,0,0-.026-.279c-.021-.139-.065-.183-.213-.188a6.9,6.9,0,0,0-.843-.006,6.4,6.4,0,0,1-.761,0,1.972,1.972,0,0,1-1.844-1.8c-.03-.573-.038-1.147-.039-1.722q-.009-3.493-.008-6.985c0-1.392.006-2.783.012-4.175,0-.4.013-.418.393-.416.826.006,1.654.043,2.479.017.576-.018,1.151.006,1.725,0a9.682,9.682,0,0,1,1.361.006.154.154,0,0,0,.04,0c.683-.07,1.364.019,2.046,0,.348-.008.7-.026,1.043-.029.694,0,1.387,0,2.081,0,.628,0,1.255.019,1.883.02.574,0,1.148-.019,1.722-.018.548,0,1.095.02,1.642.024.466,0,.933,0,1.4-.008a.8.8,0,0,1,.159,0c.084.015.154.057.157.154,0,.121,0,.241,0,.362q0,2.329.007,4.657,0,.8,0,1.606h.01" transform="translate(-198.89 -37.456)" fill="#462b74"/>
      <path id="Trazado_1576" data-name="Trazado 1576" d="M212.629,43.075q-1.486,0-2.973,0l-4.7-.009c-.254,0-.508.006-.763.007-.107,0-.214,0-.321-.006-.178-.012-.225-.051-.222-.212a8.281,8.281,0,0,1,.041-.962,7.365,7.365,0,0,1,1.121-3.066,8.307,8.307,0,0,1,2.284-2.344c.287-.2.59-.367.885-.551.108-.067.129-.124.075-.232-.077-.157-.159-.31-.242-.463q-.47-.864-.942-1.726a2.2,2.2,0,0,1-.124-.252.307.307,0,0,1,.13-.383.31.31,0,0,1,.4.066,2.285,2.285,0,0,1,.209.342q.528.969,1.051,1.941c.206.382.147.368.574.2a8.79,8.79,0,0,1,1.692-.492,10.079,10.079,0,0,1,5.452.469l.037.015c.331.123.312.139.486-.184q.534-.989,1.08-1.97a2.379,2.379,0,0,1,.215-.338.307.307,0,0,1,.519.318c-.052.122-.121.238-.185.355q-.538.988-1.076,1.974a1.054,1.054,0,0,0-.067.145.122.122,0,0,0,.041.143,1.743,1.743,0,0,0,.2.128,8.633,8.633,0,0,1,2.179,1.692,7.619,7.619,0,0,1,1.937,3.725,6.326,6.326,0,0,1,.107,1.435c0,.143-.048.2-.187.212-.213.016-.427.018-.641.018l-7.03,0h-1.246Zm-3.239-4.028a.849.849,0,1,0-.878.84.843.843,0,0,0,.878-.84m7.419-.875a.822.822,0,0,0-.859.815.843.843,0,0,0,.833.892.89.89,0,0,0,.871-.865.867.867,0,0,0-.845-.842" transform="translate(-198.912 -32.809)" fill="#462b74"/>
      <path id="Trazado_1577" data-name="Trazado 1577" d="M230.454,54.048c0-1.338,0-2.675,0-4.012a2.145,2.145,0,0,1,.381-1.281,2.014,2.014,0,0,1,2.885-.373,1.908,1.908,0,0,1,.76,1.565c0,1.23.007,2.461.008,3.691q0,2.228,0,4.455a3.4,3.4,0,0,1-.041.639,2.014,2.014,0,0,1-3.981-.472c0-.575,0-1.15,0-1.725q0-1.244,0-2.487h0" transform="translate(-206.894 -37.313)" fill="#462b74"/>
      <path id="Trazado_1578" data-name="Trazado 1578" d="M196.9,54.081c0-1.391-.006-2.782,0-4.174a1.861,1.861,0,0,1,1.069-1.75,1.882,1.882,0,0,1,2.117.169,1.851,1.851,0,0,1,.782,1.553c0,1.1,0,2.191,0,3.286,0,.971-.015,1.944.011,2.914.018.709.012,1.418.013,2.126a1.9,1.9,0,0,1-.954,1.747A1.937,1.937,0,0,1,197.92,60a1.859,1.859,0,0,1-1.014-1.706c-.008-1.405,0-2.809,0-4.214Z" transform="translate(-196.902 -37.306)" fill="#462b74"/>
    </g>
  </g>
</svg>
