<svg xmlns="http://www.w3.org/2000/svg" width="78.023" height="78.023" viewBox="0 0 78.023 78.023">
  <g id="Grupo_879" data-name="Grupo 879" transform="translate(-864.291 -2758.351)">
    <path id="Trazado_1740" data-name="Trazado 1740" d="M78.023,39.512A39.012,39.012,0,1,1,39.012.5,39.012,39.012,0,0,1,78.023,39.512" transform="translate(864.291 2757.851)" fill="#462b74"/>
    <g id="Grupo_876" data-name="Grupo 876" transform="translate(890.296 2781.976)">
      <path id="Trazado_1579" data-name="Trazado 1579" d="M41.958,40.692a8.28,8.28,0,0,1,1.606.239,21.715,21.715,0,0,1,2.13.68,9.129,9.129,0,0,0,1.33.4,1.17,1.17,0,0,0,.609-.02c.624-.2,1.251-.394,1.871-.607s1.22-.4,1.838-.584a6.381,6.381,0,0,1,2.257-.191,10.3,10.3,0,0,1,1.449.224,8.064,8.064,0,0,1,2.542,1.087,5.222,5.222,0,0,1,1.016.887c.186.2.365.4.543.6.14.159.134.2-.062.318a8.516,8.516,0,0,0-1.2.9,5.936,5.936,0,0,0-1.561,2.225,6.38,6.38,0,0,0-.474,2.908,7.985,7.985,0,0,0,.352,1.93,6.672,6.672,0,0,0,1.989,2.891,6.235,6.235,0,0,0,1.743,1.128.89.89,0,0,1,.1.049.141.141,0,0,1,.074.191c-.107.275-.208.554-.314.83a17.783,17.783,0,0,1-2.973,4.937,8.355,8.355,0,0,1-1.532,1.517,3.68,3.68,0,0,1-2.878.7,7.707,7.707,0,0,1-1.451-.386c-.324-.124-.655-.23-.98-.355a6.032,6.032,0,0,0-3.792-.173,10.388,10.388,0,0,0-1.208.4,8.9,8.9,0,0,1-1.611.526,3.75,3.75,0,0,1-1.456.067,4.028,4.028,0,0,1-1.667-.772,8.816,8.816,0,0,1-1.424-1.355A20.912,20.912,0,0,1,36.309,58.2a19.345,19.345,0,0,1-2.03-6.081,13,13,0,0,1,.278-5.471,5.523,5.523,0,0,1,.413-1.079c.19-.365.391-.724.589-1.085a7.178,7.178,0,0,1,2.316-2.444,7.409,7.409,0,0,1,2.746-1.181,9.172,9.172,0,0,1,1.336-.163" transform="translate(-34.112 -33.285)" fill="#fff"/>
      <path id="Trazado_1580" data-name="Trazado 1580" d="M59.07,30.812a6.379,6.379,0,0,1-1.079,3.444c-.093.138-.2.271-.289.41a6.924,6.924,0,0,1-2.09,1.972,4.91,4.91,0,0,1-2.578.814c-.426.007-.432,0-.452-.419a5.482,5.482,0,0,1,.3-1.971A7.543,7.543,0,0,1,54.5,32.37a4.638,4.638,0,0,1,1.06-.89c.3-.179.591-.363.9-.53a6.664,6.664,0,0,1,2.3-.741.885.885,0,0,1,.192-.017.121.121,0,0,1,.126.119c0,.167,0,.334,0,.5" transform="translate(-39.611 -30.19)" fill="#fff"/>
    </g>
  </g>
</svg>
