<?xml version="1.0" encoding="UTF-8"?><svg id="Capa_2" xmlns="http://www.w3.org/2000/svg" viewBox="0 0 303.85 249.9"><defs><style>.cls-1{letter-spacing:-.04em;}.cls-2{letter-spacing:-.01em;}.cls-3{letter-spacing:0em;}.cls-4{fill:#a7c72e;}.cls-5{fill:#2cb2aa;}.cls-6{letter-spacing:-.03em;}.cls-7{letter-spacing:-.01em;}.cls-8,.cls-9{fill:none;stroke:#2cb2aa;stroke-miterlimit:10;stroke-width:1.25px;}.cls-10{letter-spacing:-.02em;}.cls-11{letter-spacing:-.02em;}.cls-12{letter-spacing:0em;}.cls-13{letter-spacing:-.01em;}.cls-14{letter-spacing:0em;}.cls-15{font-size:12px;}.cls-15,.cls-16{font-family:MyriadPro-Regular, 'Myriad Pro';}.cls-17{letter-spacing:-.05em;}.cls-16{font-size:8px;}.cls-18{letter-spacing:0em;}.cls-19{letter-spacing:0em;}.cls-20{letter-spacing:0em;}.cls-21{letter-spacing:0em;}.cls-9{stroke-dasharray:0 0 1.94 4.85;}.cls-22{letter-spacing:.01em;}.cls-23{letter-spacing:-.05em;}</style></defs><g id="Capa_1-2"><line class="cls-8" x1="185.76" y1="137.71" x2="185.76" y2="138.71"/><line class="cls-9" x1="185.76" y1="143.56" x2="185.76" y2="236.2"/><line class="cls-8" x1="185.76" y1="238.63" x2="185.76" y2="239.63"/><polygon class="cls-5" points="5.26 234.61 5.26 179.41 15.07 179.41 15.07 174.39 5.26 174.39 5.26 119.19 15.07 119.19 15.07 114.17 5.26 114.17 5.26 58.97 15.07 58.97 15.07 53.95 5.26 53.95 5.26 0 .24 0 .24 239.63 303.85 239.63 303.85 234.61 5.26 234.61"/><path class="cls-8" d="m.24,239.63S252.15,135.17,288.56,19.36"/><circle class="cls-4" cx="288.71" cy="17.21" r="8"/><circle class="cls-4" cx="31.56" cy="225.55" r="4"/><circle class="cls-4" cx="57.65" cy="214.4" r="4"/><circle class="cls-4" cx="82.2" cy="200.86" r="4"/><circle class="cls-4" cx="107.9" cy="186.8" r="4"/><circle class="cls-4" cx="133.23" cy="170.44" r="4"/><circle class="cls-4" cx="160.44" cy="154.08" r="4"/><circle class="cls-4" cx="185.76" cy="137.71" r="4"/><circle class="cls-4" cx="211.46" cy="117.69" r="4"/><circle class="cls-4" cx="236.78" cy="94.57" r="4"/><circle class="cls-4" cx="262.11" cy="66.49" r="4"/><text class="cls-16" transform="translate(1.89 247.6)"><tspan class="cls-20" x="0" y="0">M</tspan><tspan class="cls-21" x="6.48" y="0">a</tspan><tspan class="cls-17" x="10.34" y="0">r</tspan><tspan x="12.53" y="0">.</tspan></text><text class="cls-16" transform="translate(25.74 247.6)"><tspan class="cls-14" x="0" y="0">A</tspan><tspan x="4.87" y="0">b</tspan><tspan class="cls-23" x="9.42" y="0">r</tspan><tspan class="cls-19" x="11.62" y="0">.</tspan></text><text class="cls-16" transform="translate(50.03 247.6)"><tspan class="cls-20" x="0" y="0">M</tspan><tspan class="cls-18" x="6.48" y="0">a</tspan><tspan class="cls-1" x="10.27" y="0">y</tspan><tspan x="13.73" y="0">.</tspan></text><text class="cls-16" transform="translate(78.2 247.72)"><tspan x="0" y="0">Jun.</tspan></text><text class="cls-16" transform="translate(105.98 247.81)"><tspan x="0" y="0">Ju</tspan><tspan class="cls-2" x="7.37" y="0">l</tspan><tspan x="9.18" y="0">.</tspan></text><text class="cls-16" transform="translate(129.22 247.6)"><tspan class="cls-13" x="0" y="0">A</tspan><tspan x="4.8" y="0">g</tspan><tspan class="cls-11" x="9.27" y="0">o</tspan><tspan x="13.47" y="0">.</tspan></text><text class="cls-16" transform="translate(158.63 247.6)"><tspan class="cls-20" x="0" y="0">S</tspan><tspan x="3.99" y="0">e</tspan><tspan class="cls-10" x="8" y="0">p</tspan><tspan x="12.36" y="0">.</tspan></text><text class="cls-16" transform="translate(181.76 247.6)"><tspan class="cls-3" x="0" y="0">O</tspan><tspan class="cls-22" x="5.54" y="0">c</tspan><tspan class="cls-14" x="9.23" y="0">t</tspan><tspan x="11.86" y="0">.</tspan></text><text class="cls-16" transform="translate(211.46 247.6)"><tspan x="0" y="0">N</tspan><tspan class="cls-12" x="5.26" y="0">o</tspan><tspan class="cls-1" x="9.6" y="0">v</tspan><tspan x="13.14" y="0">.</tspan></text><text class="cls-16" transform="translate(237.39 247.6)"><tspan x="0" y="0">Di</tspan><tspan class="cls-2" x="7.2" y="0">c</tspan><tspan class="cls-19" x="10.7" y="0">.</tspan></text><text class="cls-16" transform="translate(260.34 247.9)"><tspan x="0" y="0">En</tspan><tspan class="cls-7" x="8.38" y="0">e</tspan><tspan class="cls-19" x="12.29" y="0">.</tspan></text><text class="cls-16" transform="translate(282.35 247.6)"><tspan class="cls-6" x="0" y="0">F</tspan><tspan x="3.65" y="0">e</tspan><tspan class="cls-10" x="7.66" y="0">b</tspan><tspan x="12.02" y="0">.</tspan></text><text class="cls-15" transform="translate(137.23 136.82)"><tspan x="0" y="0">$ 18,200</tspan></text></g></svg>