<?xml version="1.0" encoding="UTF-8"?><svg id="Capa_2" xmlns="http://www.w3.org/2000/svg" xmlns:xlink="http://www.w3.org/1999/xlink" viewBox="0 0 203.93 39.53"><defs><style>.cls-1{fill:none;}.cls-2{clip-path:url(#clippath);}.cls-3{fill:#2eb3ab;}.cls-4{fill:#a9c82f;}.cls-5{fill:#472b75;}</style><clipPath id="clippath"><path class="cls-1" d="m24.59,25.8c.31-.2.56-.32.77-.36.21-.04.38-.07.53-.07.3.02.57.18.78.49l.65.89,1.91,2.72c.09.13.16.26.22.39s.08.26.08.36c0,.29-.1.54-.3.77-.2.22-.46.45-.78.69-1.53,1.11-3.18,2.01-4.95,2.7s-3.72,1.02-5.84,1.02c-1.6,0-3.15-.21-4.65-.63s-2.9-1.01-4.21-1.78c-1.3-.76-2.49-1.68-3.57-2.75-1.08-1.07-2.01-2.26-2.79-3.57-.78-1.31-1.38-2.72-1.81-4.23s-.63-3.08-.63-4.72.21-3.21.63-4.72c.42-1.51,1.02-2.92,1.81-4.23s1.71-2.5,2.79-3.57c1.08-1.07,2.27-1.99,3.57-2.75,1.3-.76,2.71-1.36,4.21-1.78C14.51.24,16.06.03,17.66.03c2,0,3.88.31,5.66.92,1.78.61,3.36,1.44,4.75,2.48l-.03-.03c.25.25.5.47.74.66.24.19.36.48.36.88,0,.11,0,.23-.01.38,0,.14-.06.28-.15.4l-2.21,3.37c-.36.54-.75.81-1.19.81-.31,0-.65-.15-1.02-.46-.92-.77-1.99-1.4-3.21-1.89s-2.48-.73-3.77-.73c-1.4,0-2.72.29-3.95.88-1.23.58-2.31,1.38-3.25,2.37-.93,1-1.67,2.16-2.21,3.48-.54,1.32-.81,2.71-.81,4.17s.27,2.89.81,4.21c.54,1.31,1.27,2.45,2.2,3.42s2.01,1.74,3.25,2.3,2.56.85,3.96.85c1.53,0,2.85-.26,3.96-.8,1.11-.53,2.13-1.16,3.05-1.9Z"/></clipPath></defs><g id="Capa_1-2"><circle class="cls-4" cx="185.39" cy="20.98" r="18.55"/><path class="cls-5" d="m174.99,18.21c0-.79.4-1.19,1.19-1.19h5.53v-5.64c0-.83.43-1.24,1.29-1.24h4.4c.79,0,1.19.41,1.19,1.24v5.64h5.55c.32,0,.6.1.84.31.23.21.35.5.35.88v4.15c0,.31-.11.59-.32.86-.22.27-.5.4-.86.4h-5.55v5.69c0,.32-.1.6-.3.84-.2.23-.5.35-.89.35h-4.4c-.31,0-.6-.11-.88-.32-.28-.22-.42-.5-.42-.86v-5.69h-5.53c-.79,0-1.19-.42-1.19-1.27v-4.15Z"/><path class="cls-5" d="m24.59,25.8c.31-.2.56-.32.77-.36s.38-.07.53-.07c.31.02.57.18.78.48l.65.89,1.91,2.72c.09.13.16.26.22.39.05.13.08.26.08.36,0,.29-.1.54-.3.77s-.46.45-.78.69c-1.53,1.11-3.18,2.01-4.95,2.7-1.77.68-3.72,1.02-5.84,1.02-1.6,0-3.15-.21-4.65-.63-1.5-.42-2.9-1.02-4.21-1.78-1.3-.76-2.49-1.68-3.57-2.75s-2.01-2.26-2.79-3.57c-.78-1.31-1.38-2.72-1.81-4.23C.21,20.92,0,19.35,0,17.71s.21-3.21.63-4.72,1.02-2.92,1.81-4.23,1.71-2.5,2.79-3.57c1.08-1.07,2.27-1.99,3.57-2.75,1.3-.76,2.71-1.36,4.21-1.78C14.51.24,16.06.03,17.66.03c2,0,3.88.31,5.66.92,1.78.61,3.36,1.44,4.75,2.48l-.03-.03c.25.25.5.47.74.66.24.19.36.48.36.88,0,.11,0,.23-.01.38,0,.14-.06.28-.15.4l-2.21,3.37c-.36.54-.75.81-1.19.81-.31,0-.65-.15-1.02-.46-.92-.77-1.99-1.4-3.21-1.89-1.22-.49-2.48-.73-3.77-.73-1.4,0-2.72.29-3.95.88-1.23.58-2.31,1.38-3.25,2.37s-1.67,2.16-2.21,3.48c-.54,1.32-.81,2.71-.81,4.17s.27,2.89.81,4.21c.54,1.31,1.27,2.45,2.2,3.42.93.97,2.01,1.74,3.25,2.31,1.24.57,2.56.85,3.96.85,1.53,0,2.85-.27,3.96-.8,1.11-.53,2.13-1.16,3.05-1.9Z"/><path class="cls-5" d="m33.11,2.13c0-.52.18-.92.53-1.19.35-.27.74-.4,1.15-.4h3.44c.45,0,.79.13,1.03.4.23.27.41.6.54,1,.13.4.22.82.27,1.28.05.46.12.88.19,1.25.4-.56.84-1.1,1.34-1.63.49-.53,1.06-1,1.69-1.42.63-.41,1.34-.75,2.13-1,.79-.25,1.69-.38,2.7-.38.9,0,1.71.06,2.43.18.72.12,1.41.3,2.06.54.66.24,1.3.56,1.93.94.63.39,1.3.84,2.02,1.36.31.2.57.42.8.67.22.25.34.55.34.89-.02.14-.04.3-.08.46-.04.16-.11.32-.22.49l-2.21,3.5c-.14.18-.31.31-.5.39-.19.08-.35.12-.5.12-.29,0-.57-.07-.84-.22-.59-.32-1.13-.63-1.62-.92-.49-.29-.96-.53-1.43-.74-.47-.21-.95-.37-1.44-.49-.49-.12-1.05-.18-1.66-.18-1.6,0-2.95.51-4.06,1.54-1.11,1.02-1.85,2.44-2.22,4.23v20.33c0,1.08-.56,1.62-1.68,1.62h-4.44c-1.12,0-1.68-.54-1.68-1.62V2.13Z"/><path class="cls-5" d="m88.54,31.01c-1.58,1.35-3.31,2.41-5.19,3.18-1.88.77-3.94,1.16-6.19,1.16-2.43,0-4.73-.46-6.9-1.38-2.18-.92-4.08-2.17-5.72-3.77-1.64-1.6-2.93-3.47-3.9-5.62-.96-2.15-1.44-4.46-1.44-6.94,0-1.6.2-3.15.59-4.64.4-1.49.96-2.89,1.69-4.19.73-1.3,1.61-2.5,2.66-3.59,1.04-1.09,2.21-2.02,3.49-2.79,1.28-.77,2.68-1.37,4.18-1.79,1.5-.42,3.09-.63,4.76-.63,1.37,0,2.71.17,4.04.5,1.33.33,2.59.8,3.79,1.42,1.2.61,2.31,1.35,3.36,2.22,1.04.87,1.96,1.86,2.75,2.95,1.08,1.51,1.87,3.14,2.37,4.88.5,1.74.75,3.68.75,5.8,0,.52-.02.96-.07,1.31s-.16.63-.34.85c-.18.22-.45.37-.81.47-.36.1-.86.15-1.51.15h-23.92c.23,1.29.68,2.44,1.33,3.44s1.43,1.84,2.33,2.53c.9.69,1.88,1.21,2.94,1.56,1.06.35,2.12.53,3.18.53.81,0,1.59-.08,2.33-.24.75-.16,1.44-.38,2.09-.65.65-.27,1.24-.58,1.79-.93.55-.35,1.03-.71,1.44-1.09,0-.02,0-.03.03-.03.22-.2.42-.35.62-.47s.4-.18.62-.18c.16,0,.35.05.55.16.21.11.41.29.61.54.48.59.9,1.09,1.24,1.48.34.4.62.73.84,1,.22.27.37.5.47.7.1.2.15.4.15.59,0,.5-.34,1.01-1.02,1.51Zm-11.97-24.32c-1.06,0-2.09.19-3.1.58-1.01.39-1.93.91-2.76,1.58-.84.67-1.56,1.45-2.18,2.35-.62.9-1.07,1.87-1.36,2.91h19.09c-.29-1.1-.72-2.1-1.31-3.01-.58-.91-1.29-1.69-2.12-2.35-.83-.66-1.77-1.16-2.83-1.52-1.06-.36-2.2-.54-3.42-.54Z"/><path class="cls-5" d="m121.01,25.8c.3-.2.56-.32.77-.36.21-.04.38-.07.53-.07.31.02.57.18.78.48l.65.89,1.91,2.72c.09.13.16.26.22.39.05.13.08.26.08.36,0,.29-.1.54-.3.77-.2.22-.46.45-.78.69-1.53,1.11-3.18,2.01-4.95,2.7-1.77.68-3.72,1.02-5.84,1.02-1.6,0-3.15-.21-4.65-.63-1.5-.42-2.9-1.02-4.21-1.78-1.3-.76-2.49-1.68-3.57-2.75-1.08-1.07-2.01-2.26-2.79-3.57-.78-1.31-1.38-2.72-1.81-4.23-.42-1.51-.63-3.08-.63-4.72s.21-3.21.63-4.72c.42-1.51,1.03-2.92,1.81-4.23.78-1.31,1.71-2.5,2.79-3.57,1.08-1.07,2.27-1.99,3.57-2.75,1.3-.76,2.71-1.36,4.21-1.78,1.5-.42,3.05-.63,4.65-.63,2,0,3.88.31,5.66.92,1.78.61,3.36,1.44,4.75,2.48l-.03-.03c.25.25.5.47.74.66.24.19.36.48.36.88,0,.11,0,.23-.01.38,0,.14-.06.28-.15.4l-2.21,3.37c-.36.54-.75.81-1.19.81-.31,0-.65-.15-1.02-.46-.92-.77-1.99-1.4-3.21-1.89s-2.48-.73-3.77-.73c-1.4,0-2.72.29-3.95.88-1.23.58-2.31,1.38-3.25,2.37s-1.67,2.16-2.21,3.48c-.54,1.32-.81,2.71-.81,4.17s.27,2.89.81,4.21c.54,1.31,1.27,2.45,2.2,3.42.92.97,2.01,1.74,3.25,2.31,1.24.57,2.56.85,3.96.85,1.53,0,2.85-.27,3.96-.8,1.11-.53,2.13-1.16,3.05-1.9Z"/><path class="cls-5" d="m157.57,31.01c-1.58,1.35-3.31,2.41-5.19,3.18-1.88.77-3.94,1.16-6.19,1.16-2.43,0-4.73-.46-6.9-1.38-2.17-.92-4.08-2.17-5.72-3.77-1.64-1.6-2.93-3.47-3.9-5.62s-1.44-4.46-1.44-6.94c0-1.6.2-3.15.59-4.64.39-1.49.96-2.89,1.68-4.19.73-1.3,1.61-2.5,2.66-3.59,1.04-1.09,2.21-2.02,3.49-2.79,1.29-.77,2.68-1.37,4.18-1.79,1.5-.42,3.09-.63,4.76-.63,1.37,0,2.71.17,4.04.5s2.59.8,3.79,1.42c1.2.61,2.31,1.35,3.36,2.22,1.04.87,1.96,1.86,2.75,2.95,1.08,1.51,1.87,3.14,2.37,4.88.5,1.74.76,3.68.76,5.8,0,.52-.02.96-.07,1.31s-.16.63-.34.85c-.18.22-.45.37-.81.47s-.86.15-1.51.15h-23.92c.23,1.29.68,2.44,1.33,3.44s1.43,1.84,2.33,2.53c.9.69,1.88,1.21,2.94,1.56,1.06.35,2.12.53,3.18.53.81,0,1.59-.08,2.33-.24.75-.16,1.44-.38,2.09-.65.65-.27,1.24-.58,1.79-.93.55-.35,1.03-.71,1.44-1.09,0-.02,0-.03.03-.03.22-.2.42-.35.62-.47.2-.12.4-.18.62-.18.16,0,.35.05.55.16s.41.29.61.54c.48.59.9,1.09,1.24,1.48.34.4.62.73.83,1,.22.27.37.5.47.7.1.2.15.4.15.59,0,.5-.34,1.01-1.02,1.51Zm-11.97-24.32c-1.06,0-2.09.19-3.1.58-1.01.39-1.93.91-2.76,1.58-.84.67-1.56,1.45-2.18,2.35-.62.9-1.07,1.87-1.36,2.91h19.09c-.29-1.1-.72-2.1-1.31-3.01-.58-.91-1.29-1.69-2.12-2.35-.83-.66-1.77-1.16-2.83-1.52-1.06-.36-2.2-.54-3.42-.54Z"/><g class="cls-2"><rect class="cls-3" x="-9.26" y="-5.59" width="47.83" height="22.74"/><rect class="cls-4" x="-9.26" y="17.05" width="47.83" height="20.84"/><path class="cls-1" d="m25.14,1.44c.19.11.35.24.47.4s.19.35.19.57c0,.17-.05.35-.14.54l-2.29,3.89c-.27.36-.55.54-.85.54-.09,0-.2-.02-.33-.06-.13-.04-.25-.1-.38-.18-.99-.71-2.05-1.26-3.18-1.65-1.13-.39-2.33-.59-3.61-.59-1.6,0-3.07.3-4.41.91-1.34.61-2.49,1.43-3.47,2.46-.98,1.04-1.73,2.26-2.28,3.66s-.81,2.9-.81,4.5.27,3.08.81,4.47,1.3,2.61,2.28,3.64c.97,1.04,2.13,1.85,3.47,2.45,1.34.6,2.81.9,4.41.9,1.27,0,2.49-.2,3.64-.59s2.22-.94,3.19-1.65c.13-.09.26-.16.39-.19.13-.03.25-.06.34-.07.27,0,.54.17.82.52l2.33,3.94c.09.19.14.36.14.52,0,.22-.07.4-.2.54-.13.14-.29.28-.46.4-1.48.99-3.07,1.76-4.77,2.3s-3.5.81-5.39.81c-1.67,0-3.27-.21-4.8-.64s-2.97-1.03-4.3-1.82c-1.34-.79-2.55-1.73-3.64-2.82-1.09-1.09-2.03-2.3-2.82-3.63-.79-1.33-1.39-2.76-1.82-4.29-.42-1.53-.64-3.13-.64-4.8s.21-3.27.64-4.8c.42-1.53,1.03-2.97,1.82-4.32s1.73-2.57,2.82-3.67c1.09-1.1,2.31-2.04,3.64-2.82C7.3.06,8.74-.55,10.27-.98c1.53-.43,3.13-.65,4.8-.65,1.87,0,3.65.26,5.33.79,1.68.53,3.26,1.29,4.74,2.28Z"/></g></g></svg>