<?xml version="1.0" encoding="UTF-8"?><svg id="Capa_2" xmlns="http://www.w3.org/2000/svg" xmlns:xlink="http://www.w3.org/1999/xlink" viewBox="0 0 2232.55 1615.85"><defs><style>.cls-1{fill:none;}.cls-2{clip-path:url(#clippath);}.cls-3{fill:#699ff0;}.cls-4{fill:#ed985f;}.cls-5{fill:#ebf3fa;}.cls-6{fill:#ffa412;}.cls-7{fill:#fff;}.cls-8{fill:#ffb93e;}.cls-9{fill:#ffb973;}.cls-10{fill:#ffb27d;}.cls-11{fill:#699dee;}.cls-12{fill:#a8d29f;}.cls-13{fill:#b23b38;}.cls-14{fill:#c94c43;}.cls-15{fill:#e2810e;}.cls-16{fill:#233862;}.cls-17{fill:#719e67;}.cls-18{fill:#2b478b;}.cls-19{fill:#4a75cb;}.cls-20{fill:#2c3a64;}.cls-21{fill:#2e3552;}.cls-22{fill:#4c85d8;}.cls-23,.cls-24{fill:#82b378;}.cls-24,.cls-25{opacity:.5;}.cls-25{fill:#afcdfb;}</style><clipPath id="clippath"><rect class="cls-1" x="303.03" width="1626.49" height="1606.28"/></clipPath></defs><g id="Layer_1"><path class="cls-5" d="m199.3,1607.94S-40.96,1332.68,59.37,1009.14c90.04-290.38,497.16-478.32,713.49-334.5,104.65,69.57,189.2-210.06,536.52-312.43,256.84-75.7,636.63,94.07,540.17,613.98-73.34,395.28,290.45,198.21,211,634.88l-1861.25-3.14Z"/><path class="cls-12" d="m1969.53,1606.8l-248.48,3.9c-8.92-7.57,40.12-31.12,103.94-29.81,6.87.14,15.51.92,25.41,3.01,2.29-30.43,15.38-167.23,64.69-161.74,55.45,6.15,0,60.25-15.67,92.27-11.61,23.72-23.86,57.74-29.46,73.79,4.5.98,9.16,1.93,13.92,2.81,7.35-22.56,34.69-98.46,69.47-94.04,40.83,5.18,24.42,35.61-4.52,53.67-21.23,13.28-47.3,32.16-59.69,41.28,10.5,1.71,21.45,2.87,32.56,2.61,28.52-.68,42.44,7.73,47.84,12.25Z"/><path class="cls-12" d="m180.38,1600.99c-5.91-9.28-23.69-33.37-47.37-30.18-25.8,3.47,28.5,20.48,45.12,30.25-3.69.05-6.87-.24-9.2-1.07-11.11-3.96-30.15,3.63-36.23,6.3h105.8c-.73-2.53-2.64-6.66-7.57-9.68-1.74-1.06-5.23-1.21-9.74-.87,6.29-7.42,10.66-31.11-6.85-25.01-12.79,4.45-12.76,18.93-11.5,27.49-2.72.43-5.48.86-8.21,1.25-5.27-26.85-23.9-105.53-61.66-107.63-38.28-2.12,32.46,81.6,56.02,108.38-3.02.36-5.92.64-8.62.76Z"/><path class="cls-8" d="m692.46,1578.38v20.22c0,1.61-.5,3.11-1.34,4.35-.89,1.31-2.16,2.34-3.66,2.91-.36.14-.73.25-1.11.34h0c-.1.03-.2.05-.31.06-.45.08-.91.12-1.37.12l-322.02-.05c-.34,0-.68-.02-1.01-.07-.13-.01-.26-.04-.38-.06-3.5-.63-6.21-3.63-6.39-7.26,0-.13,0-.27,0-.4v-20.22c0-.13,0-.27.01-.4.21-4.1,3.63-7.39,7.78-7.39l322.01.05c.21,0,.41,0,.62.03.09,0,.18.02.26.03.1,0,.19.02.29.04.07,0,.14.02.21.03.49.08.97.22,1.43.4.07.03.13.05.2.08.07.03.13.06.2.08.13.06.26.13.39.19.14.08.29.16.42.24.12.07.25.15.37.23.14.09.27.19.4.3.1.08.2.16.3.25,0,0,.01,0,.02.02.07.06.13.12.2.18.2.18.39.38.56.58.06.06.11.12.15.18.05.06.1.12.15.19.1.13.2.26.29.4.84,1.24,1.33,2.74,1.34,4.35Z"/><path class="cls-6" d="m534.33,1606.37l-172.52-.03c-.14,0-.28,0-.41-.01-.15,0-.3-.03-.44-.05-3.32-.46-5.92-3.55-6.09-7.33,0-.13,0-.27,0-.4v-20.22c0-.13,0-.27.01-.4.19-4.1,3.24-7.39,6.95-7.39l151.33.02c.07.29.14.59.21.88,2.51,10.37,8.11,24.3,20.66,34.67.1.08.21.17.31.25Z"/><rect class="cls-6" x="649.61" y="1570.59" width="3.66" height="35.8"/><rect class="cls-6" x="637.23" y="1570.58" width="3.66" height="35.8"/><rect class="cls-6" x="622.37" y="1570.58" width="3.66" height="35.8"/><rect class="cls-6" x="599.6" y="1570.58" width="3.66" height="35.8"/><rect class="cls-6" x="575.52" y="1570.58" width="3.66" height="35.8"/><rect class="cls-6" x="538.6" y="1570.57" width="3.66" height="35.8"/><rect class="cls-6" x="504.04" y="1570.57" width="3.66" height="35.8"/><rect class="cls-6" x="473.17" y="1570.56" width="3.66" height="35.8"/><rect class="cls-6" x="661.41" y="1570.59" width="3.66" height="35.8"/><rect class="cls-6" x="669.2" y="1570.59" width="3.66" height="35.8"/><rect class="cls-6" x="676.72" y="1570.59" width="3.66" height="35.8"/><path class="cls-6" d="m686.04,1570.72v35.55c-.45.08-.91.12-1.38.12h-2.29s0-35.8,0-35.8h2.29c.47,0,.93.04,1.37.12Z"/><path class="cls-6" d="m691.12,1574.03v28.92c-.89,1.31-2.17,2.34-3.66,2.91v-34.75c1.5.58,2.77,1.61,3.66,2.92Z"/><path class="cls-8" d="m709.1,1543.47v20.22c0,1.61-.49,3.1-1.34,4.35-.89,1.31-2.16,2.34-3.66,2.91-.46.18-.93.31-1.42.4-.45.08-.91.13-1.37.13l-322.01-.05c-1.29,0-2.52-.32-3.59-.88-2.28-1.19-3.91-3.49-4.16-6.16-.01-.12-.02-.23-.03-.35,0-.13,0-.27,0-.4v-20.22c0-.13,0-.27.01-.4.21-4.1,3.63-7.39,7.78-7.39l322.01.05c.47,0,.93.04,1.37.13.49.09.97.22,1.43.4,1.49.58,2.77,1.61,3.65,2.91.84,1.25,1.34,2.74,1.34,4.35Z"/><path class="cls-6" d="m550.97,1571.45l-172.52-.03c-1.15,0-2.24-.32-3.2-.88-2.04-1.19-3.49-3.48-3.71-6.16-.01-.12-.02-.23-.03-.35,0-.13,0-.27,0-.4v-20.22c0-.13,0-.27.01-.4.19-4.1,3.24-7.39,6.95-7.39l151.33.02c2.35,10.25,7.74,24.32,20.12,34.92.35.3.7.59,1.06.88Z"/><rect class="cls-6" x="666.26" y="1535.67" width="3.66" height="35.8"/><rect class="cls-6" x="653.87" y="1535.67" width="3.66" height="35.8"/><rect class="cls-6" x="639.01" y="1535.67" width="3.66" height="35.8"/><rect class="cls-6" x="616.24" y="1535.67" width="3.66" height="35.8"/><rect class="cls-6" x="592.16" y="1535.66" width="3.66" height="35.8"/><rect class="cls-6" x="555.25" y="1535.66" width="3.66" height="35.8"/><rect class="cls-6" x="520.68" y="1535.65" width="3.66" height="35.8"/><rect class="cls-6" x="489.82" y="1535.65" width="3.66" height="35.8"/><rect class="cls-6" x="678.05" y="1535.68" width="3.66" height="35.8"/><rect class="cls-6" x="685.84" y="1535.68" width="3.66" height="35.8"/><rect class="cls-6" x="693.36" y="1535.68" width="3.66" height="35.8"/><path class="cls-6" d="m702.69,1535.8v35.55c-.45.08-.91.13-1.38.12h-2.29v-35.8h2.29c.47,0,.93.04,1.37.12Z"/><path class="cls-6" d="m707.77,1539.12v28.92c-.89,1.31-2.17,2.34-3.66,2.91v-34.75c1.5.58,2.77,1.61,3.66,2.91Z"/><g class="cls-2"><path class="cls-23" d="m1049.38,1682.51l-4.98,1.73c-20.6-43.1-51.58-74.73-81.65-101.18-32.19-28.34-95.58-63.03-174.6-56.58-32.58,2.66-56.65,9.37-68.38,13.22l-2.57-5.74c152.71-63.45,242.68,5.7,289.65,69.33,30.07,40.74,42.52,79.22,42.52,79.22Z"/><path class="cls-12" d="m1222.68,1589.11l-173.3,93.4c-13.27-27.19-33.24-52.52-49.89-71.04-16.65-18.53-29.98-30.25-29.98-30.25-106.15-93.5-252.3-47.26-252.3-47.26l126.05-132.19c77.05-27.72,145.36-15.31,202.04,13.29,111.01,56,177.38,174.07,177.38,174.07Z"/><path class="cls-23" d="m1222.68,1589.11l-173.3,93.4c-13.27-27.19-33.24-52.52-49.89-71.04-16.65-18.53-29.98-30.25-29.98-30.25-106.15-93.5-187.84-114.86-187.84-114.86l80.09,1.52c29.85.57,49.36-18.94,74.29-35.38,5.69-3.75,11.43-18.75,16.41-22.31,28.59-20.47,57.09-13.17,92.84,4.87,111.01,56,177.38,174.07,177.38,174.07Z"/><path class="cls-23" d="m1205.76,1584.25h0c-16.69-41.61-80.17-102.01-82.73-104.29-32.84-29.9-67.66-52.19-103.49-66.24-28.72-11.26-58.14-17.29-87.45-17.91-50-1.06-81.89,13.78-83.23,14.41l-.47.22-102.48,105.36,8.76-1.47c56.86-9.51,107.9-7.02,151.71,7.41,34.97,11.51,65.46,30.62,90.63,56.8,42.96,44.68,57.48,89.41,57.6,89.91l151.14-84.21Zm-159.17,56.81c-7.94-17.06-22.23-42.43-45.19-66.36-25.83-26.93-57.12-46.59-93.02-58.43-38.31-12.64-81.94-16.36-130-11.1-5.28.58-8.39-5.76-4.69-9.57l71.02-73.02c5.21-5.36,11.66-9.34,18.79-11.6,13.57-4.31,37.77-10.05,68.79-9.35,28.59.65,57.29,6.56,85.33,17.59,35.09,13.8,69.24,35.68,101.51,65.06.16.14,15.77,14.1,33.22,32.95,22.97,24.8,38.64,46.69,45.31,63.31l-141.62,81.35c-1.47-4.98-3.28-7.59-9.44-20.83Z"/><path class="cls-23" d="m1046.75,1464.12c11.77,26.31,3.46,49.11-22.85,60.87-26.31,11.77-60.67,8.05-72.43-18.26-11.77-26.31-4.23-48.57,22.08-60.33,26.31-11.77,61.44-8.59,73.2,17.72Z"/><path class="cls-23" d="m885.21,1795.3l-5.55,1.8c-21.83-48.13-55.41-83.79-88.08-113.72-34.98-32.06-104.33-71.83-191.87-66.44-36.09,2.22-62.87,9.1-75.93,13.11l-2.71-6.4c170.32-66.81,268.3,11.66,318.85,83.09,32.36,45.73,45.28,88.57,45.28,88.57Z"/><path class="cls-12" d="m1078.95,1695.82l-193.75,99.48c-14.08-30.37-35.61-58.82-53.61-79.68-18-20.86-32.49-34.13-32.49-34.13-115.35-105.77-278.02-57.84-278.02-57.84l142.34-143.44c85.84-28.96,161.12-13.72,223.18,19.16,121.55,64.4,192.35,196.46,192.35,196.46Z"/><path class="cls-23" d="m891.31,1779.87c-.13-.56-15.19-50.36-61.73-100.73-27.26-29.51-60.57-51.32-98.99-64.83-48.14-16.92-104.54-20.8-167.64-11.54l-9.72,1.43,115.68-114.28.53-.24c1.49-.67,37.09-16.38,92.38-14.1,32.41,1.34,64.81,8.65,96.33,21.75,39.32,16.34,77.34,41.75,113.01,75.55,2.78,2.58,71.67,70.79,89.21,117.19h0l-169.04,89.8Zm1.71-7.23l158.45-86.85c-7.01-18.53-23.86-43.09-48.71-71.03-18.89-21.23-35.85-37.02-36.02-37.17-35.05-33.22-72.33-58.17-110.84-74.21-30.77-12.81-62.39-19.99-94-21.34-34.29-1.46-61.19,4.36-76.29,8.82-7.93,2.35-15.16,6.61-21.04,12.42l-80.17,79.2c-4.18,4.13-.88,11.21,4.97,10.69,53.28-4.76,101.46.31,143.55,15.15,39.44,13.9,73.63,36.33,101.6,66.69,24.87,26.98,40.11,55.35,48.52,74.4,6.53,14.78,8.47,17.7,9.98,23.25Z"/><path class="cls-23" d="m887.11,1553.68c12.43,29.37,2.74,54.39-26.62,66.83-29.36,12.43-67.28,7.57-79.72-21.8-12.43-29.36-3.61-53.81,25.76-66.25,29.36-12.43,68.15-8.14,80.58,21.22Z"/><path class="cls-22" d="m1011.41,1458.62s-9.68,68.41,1.38,111.9h-161.89s77.46-283.56,236.07-445.85c45.53-46.6,87.42-112.96,127.84-185.89,100.37-181.1,191.7-402.8,307.39-463.28,0,0-228.54,335.81-272.81,529.45-44.25,193.64-202.03,188.11-238,453.67Z"/><path class="cls-3" d="m1194.89,1004.95c4.71-20.64,11.53-42.88,19.93-66.17-40.43,72.93-82.31,139.29-127.84,185.89-23.37,23.91-44.97,50.45-64.83,78.33-.11-.97-7.18-62.61-32.27-125.22-24.93-62.24-67.64-125.42-138.98-130.91,0,0,172.69,132.31,85.07,403.6-56.98,117.24-99.38,220.06-99.38,220.06h124.55c-11.07-43.5-1.38-111.9-1.38-111.9,35.97-265.56,190.87-260.03,235.13-453.67Z"/><path class="cls-22" d="m1022.15,1203.02s-.23.41-.66,1.11c-4.53,7.56-30.56,50.23-28.23,23.99,2.55-28.72-29.75-136.94-29.75-136.94l26.37-13.4c25.29,63.12,32.27,125.25,32.27,125.25Z"/><path class="cls-23" d="m1804.98,710.6s.01.03.03.03l-4.79,7.3c-15.22-7.89-46.72-22.44-90.8-33.32-79.9-19.73-152.94-6.01-205.79,15.41-17.85,7.23-33.41,15.36-46.14,23.36-47.08,29.59-96.59,66.06-134.41,120.58l-6.45-3.49-178.89-137.41-37.92-29.12s25.4-31.89,69.17-71.23c50.25-45.17,124.68-100.15,212.67-128,50.75-16.07,106-23.1,163.7-14.03,37.88,5.97,76.82,18.87,116.23,40.71l143.42,209.23s-.02,0-.03-.01Z"/><path class="cls-23" d="m960.67,1788.93l4.98,1.73c20.6-43.1,51.58-74.73,81.65-101.18,32.19-28.34,95.58-63.03,174.6-56.58,32.58,2.66,56.65,9.37,68.38,13.22l2.57-5.74c-152.71-63.45-242.68,5.7-289.65,69.33-30.07,40.74-42.52,79.22-42.52,79.22Z"/><path class="cls-12" d="m787.37,1695.54l173.3,93.4c13.27-27.19,33.24-52.52,49.89-71.04,16.65-18.52,29.98-30.25,29.98-30.25,106.15-93.5,252.29-47.26,252.29-47.26l-126.04-132.19c-77.05-27.72-145.36-15.31-202.04,13.29-111.01,56-177.38,174.07-177.38,174.07Z"/><path class="cls-23" d="m804.28,1690.68h0c16.69-41.61,80.17-102.01,82.73-104.29,32.84-29.9,67.66-52.19,103.49-66.24,28.72-11.26,58.14-17.29,87.45-17.91,50-1.06,81.89,13.78,83.23,14.41l.47.22,102.48,105.36-8.76-1.46c-56.86-9.51-107.9-7.02-151.71,7.41-34.97,11.51-65.46,30.62-90.63,56.8-42.96,44.68-57.48,89.41-57.6,89.91l-151.14-84.21Zm159.17,56.81c7.94-17.06,22.23-42.43,45.19-66.36,25.83-26.92,57.13-46.58,93.02-58.43,38.31-12.64,81.94-16.36,130-11.1,5.28.58,8.39-5.76,4.69-9.57l-71.02-73.02c-5.21-5.36-11.67-9.34-18.79-11.6-13.57-4.3-37.77-10.05-68.79-9.35-28.59.65-57.29,6.56-85.33,17.59-35.09,13.8-69.24,35.68-101.51,65.06-.16.14-15.77,14.1-33.22,32.95-22.97,24.8-38.64,46.69-45.3,63.31l141.62,81.35c1.47-4.98,3.28-7.59,9.44-20.83Z"/><path class="cls-23" d="m963.3,1570.55c-11.77,26.31-3.46,49.11,22.85,60.87,26.31,11.77,60.67,8.05,72.43-18.26,11.77-26.31,4.23-48.57-22.08-60.33-26.31-11.77-61.44-8.59-73.2,17.72Z"/><path class="cls-23" d="m1360.08,1757.44l-4.98,1.73c-20.6-43.1-51.58-74.73-81.65-101.18-32.19-28.34-95.58-63.03-174.6-56.58-32.58,2.66-56.65,9.37-68.38,13.22l-2.57-5.74c152.71-63.45,242.68,5.7,289.65,69.33,30.07,40.74,42.52,79.22,42.52,79.22Z"/><path class="cls-12" d="m1533.37,1664.04l-173.3,93.4c-13.27-27.19-33.24-52.52-49.89-71.04-16.65-18.52-29.98-30.25-29.98-30.25-106.15-93.5-252.29-47.26-252.29-47.26l126.04-132.19c77.05-27.72,145.36-15.31,202.04,13.29,111.01,56,177.38,174.07,177.38,174.07Z"/><path class="cls-23" d="m1516.46,1659.18h0c-16.68-41.61-80.17-102.01-82.73-104.29-32.84-29.9-67.66-52.19-103.49-66.24-28.72-11.26-58.14-17.29-87.45-17.91-50-1.06-81.89,13.78-83.23,14.41l-.47.22-102.48,105.36,8.76-1.46c56.86-9.51,107.9-7.02,151.71,7.4,34.97,11.51,65.46,30.62,90.63,56.8,42.96,44.68,57.47,89.41,57.6,89.92l151.14-84.21Zm-159.17,56.81c-7.94-17.06-22.23-42.43-45.19-66.36-25.83-26.92-57.12-46.59-93.02-58.43-38.3-12.64-81.94-16.36-130-11.1-5.28.58-8.39-5.76-4.69-9.57l71.02-73.02c5.21-5.36,11.67-9.34,18.79-11.6,13.57-4.3,37.77-10.05,68.79-9.35,28.58.65,57.29,6.56,85.33,17.59,35.09,13.8,69.24,35.68,101.51,65.06.16.14,15.77,14.1,33.22,32.95,22.97,24.8,38.64,46.69,45.3,63.31l-141.62,81.35c-1.47-4.98-3.28-7.59-9.44-20.83Z"/><path class="cls-23" d="m1357.44,1539.05c11.77,26.31,3.46,49.1-22.85,60.87-26.31,11.77-60.67,8.05-72.43-18.26-11.77-26.31-4.23-48.57,22.08-60.33,26.31-11.77,61.44-8.59,73.2,17.72Z"/><path class="cls-17" d="m1503.63,700.02c-17.85,7.23-33.41,15.36-46.14,23.36-47.08,29.59-96.59,66.06-134.41,120.58l-6.45-3.49-178.89-137.41c9.16-36.76,19.68-70.21,31.25-100.35,50.25-45.17,124.68-100.15,212.67-128,50.75-16.07,106-23.1,163.7-14.03,1.94,1.25,2.97,1.96,2.97,1.96,0,0-89.98,109.31-44.7,237.39Z"/><path class="cls-23" d="m1272.08,646.94l-271.63,31.06-7.31-.33c-1.61-24.68-5.9-48.02-11.98-70.19-10.19-37.31-25.37-71.26-41.13-102.39-9.6-18.98-23.92-41.05-43.15-63.07-34.62-39.63-85.18-79.09-152.82-99.93-43.37-13.37-77.87-17.14-94.98-18.23l-.36-8.72h.02l230.7-105.47c43.28,1.52,81.89,9.86,116.37,23.3,56.1,21.84,101.18,57.07,137.32,98.02,52.77,59.78,86.43,131.71,107.38,191.86,24.43,70.07,31.58,124.09,31.58,124.09Z"/><path class="cls-17" d="m1240.5,522.85c-3.91,50.45-29.61,91.61-82.66,106.63-58,16.41-122.02,3.38-176.68-22-10.19-37.31-25.37-71.26-41.13-102.39-9.6-18.98-23.92-41.05-43.15-63.07,120.09-28.07,98.93-209.05,98.93-209.05,56.1,21.84,101.18,57.07,137.32,98.02,52.77,59.78,86.43,131.71,107.38,191.86Z"/><path class="cls-23" d="m920.96,491.66s-4.91-51.46-101.1-30.66c0,0,37.98,46.5,101.1,30.66Z"/><path class="cls-23" d="m1662.93,989.07s.06.03.06.03l-143.43-209.24c-99.47-55.13-195.87-53.29-279.93-26.68-164.63,52.11-281.85,199.22-281.85,199.22l216.82,166.54h0s6.45,3.49,6.45,3.49c37.82-54.51,87.32-90.98,134.41-120.57,50.42-31.7,145.04-65.17,251.93-38.77,44.07,10.88,75.58,25.42,90.81,33.31l4.79-7.3s-.04-.02-.06-.04Z"/><path class="cls-17" d="m605.24,754.08s-.06.03-.06.03l143.43-209.24c99.47-55.13,195.87-53.29,279.93-26.68,164.63,52.11,281.85,199.22,281.85,199.22l-216.82,166.54h0s-6.44,3.49-6.44,3.49c-37.82-54.51-87.32-90.98-134.41-120.57-50.42-31.7-145.04-65.17-251.93-38.77-44.07,10.89-75.58,25.43-90.81,33.31l-4.79-7.29s.04-.03.06-.04Z"/><path class="cls-9" d="m162.58,1532.26c0,.07.11.15.33.18-.22-.2-.33-.28-.33-.18Z"/><path class="cls-23" d="m1072.8,644.5l-6.49-3.4c24.1-61.81,26.7-123.25,24.95-178.84-1.87-59.53-26.94-156.71-108.54-230.63-33.64-30.48-63.3-48.5-78.35-56.72l3.38-8.05c209.35,94.44,224.76,251.27,204.92,359.31-12.71,69.17-39.87,118.33-39.87,118.33Z"/><path class="cls-12" d="m1332.05,731.35l-259.24-86.85c14.94-39.28,21.63-83.57,24.58-118.03,2.96-34.46,2.17-59.11,2.17-59.11-6.11-196.36-191.79-300.49-191.79-300.49l253.66,2.12c101.28,51.72,153.59,132.72,178.47,217.3,48.71,165.66-7.85,345.06-7.85,345.06Z"/><path class="cls-23" d="m1092.01,636.46c.39-.6,31.92-57.8,36.38-143.77,2.61-50.36-7-99.41-28.55-145.77-27.01-58.09-72.97-112.17-136.62-160.74l-9.8-7.48,204.09,3.73.68.27c1.91.75,47.24,18.96,93.66,70.63,27.21,30.29,49.05,65.82,64.92,105.61,19.8,49.65,30.3,106.09,31.2,167.77.12,4.76-.76,126.45-27.07,182.89h0l-228.89-73.14Zm8-4.8l216.95,66.2c10.5-22.55,17.8-59.22,21.1-106.04,2.51-35.58,1.83-64.66,1.82-64.95-.89-60.61-11.16-115.99-30.51-164.65-15.47-38.88-36.74-73.58-63.24-103.16-28.75-32.09-57.56-51.15-74.82-60.81-9.06-5.07-19.23-7.83-29.61-8.02l-141.44-2.59c-7.38-.13-10.85,9.04-5.24,13.84,50.99,43.7,88.68,91.43,112.26,142.25,22.1,47.62,31.91,98.01,29.17,149.75-2.44,46-14.56,84.57-24.31,108.82-7.56,18.82-8.48,23.13-12.13,29.35Z"/><path class="cls-23" d="m1239.96,343.38c-36.92-15.48-66.62-1.98-82.1,34.94-15.48,36.92,13.39,75.25,50.31,90.73,36.92,15.48,67.9,2.24,83.38-34.67,15.48-36.92-14.67-75.52-51.59-91Z"/><path class="cls-23" d="m937.97,920.75l-6.96,2.26c-27.41-60.42-69.56-105.19-110.56-142.76-43.91-40.24-130.97-90.17-240.86-83.4-45.31,2.79-78.92,11.43-95.31,16.46l-3.4-8.04c213.81-83.86,336.81,14.64,400.27,104.3,40.63,57.41,56.84,111.18,56.84,111.18Z"/><path class="cls-12" d="m1181.19,795.87l-243.22,124.88c-17.67-38.12-44.7-73.84-67.3-100.03-22.6-26.19-40.79-42.84-40.79-42.84-144.8-132.78-349.01-72.61-349.01-72.61l178.68-180.06c107.76-36.36,202.26-17.23,280.17,24.05,152.59,80.84,241.47,246.62,241.47,246.62Z"/><path class="cls-23" d="m945.64,901.38c-.16-.7-19.07-63.22-77.49-126.45-34.22-37.04-76.03-64.43-124.27-81.38-60.43-21.24-131.24-26.12-210.45-14.49l-12.2,1.79,145.22-143.45.66-.3c1.87-.84,46.56-20.57,115.96-17.71,40.68,1.68,81.36,10.86,120.93,27.3,49.36,20.51,97.09,52.42,141.86,94.85,3.49,3.24,89.97,88.86,111.98,147.11h0l-212.2,112.73Zm2.15-9.08l198.9-109.03c-8.8-23.27-29.95-54.1-61.15-89.17-23.71-26.65-45-46.47-45.21-46.67-44-41.69-90.8-73.03-139.15-93.16-38.62-16.09-78.32-25.1-118-26.79-43.05-1.83-76.81,5.47-95.78,11.08-9.96,2.94-19.03,8.29-26.42,15.59l-100.64,99.42c-5.25,5.19-1.11,14.08,6.24,13.42,66.89-5.97,127.37.4,180.21,19.01,49.52,17.45,92.43,45.61,127.55,83.72,31.21,33.87,50.35,69.49,60.9,93.4,8.19,18.55,10.63,22.22,12.53,29.18Z"/><path class="cls-23" d="m940.37,617.44c-15.61-36.86-64.29-42.25-101.15-26.64-36.86,15.61-47.94,46.3-32.34,83.16,15.61,36.86,63.21,42.97,100.07,27.36,36.86-15.61,49.03-47.03,33.42-83.89Z"/><path class="cls-23" d="m1341.42,731.27l7.31.42c11.19-65.39,40.59-119.4,70.73-166.14,32.26-50.06,103.81-120.44,211.83-141.78,44.54-8.8,79.24-8.96,96.37-8.26l1.25-8.64c-228.09-26.88-322.08,99.6-360.72,202.43-24.74,65.83-26.78,121.96-26.78,121.96Z"/><path class="cls-12" d="m1074.47,672.17l266.94,59.09c7.43-41.36,24.51-82.77,39.72-113.83,15.22-31.06,28.59-51.79,28.59-51.79,106.38-165.17,319.17-158.77,319.17-158.77l-218.52-128.84c-113.45-7.83-200.01,34.65-264.9,94.34-127.09,116.9-171.01,299.81-171.01,299.81Z"/><path class="cls-23" d="m1095.23,659.27h0c6.52-61.92,68.45-166.68,71-170.7,32.55-52.4,70.62-95.38,113.16-127.73,34.1-25.93,71.12-45.14,110.05-57.08,66.4-20.37,114.64-12.63,116.66-12.29l.72.12,176.86,101.92-12.26,1.36c-79.57,8.85-146.82,31.52-199.89,67.4-42.36,28.64-75.86,65.73-99.56,110.24-40.46,75.98-42.9,141.25-42.87,141.97l-233.86-55.21Zm234.2,15.57c4.14-25.81,13.62-65.11,35.22-105.79,24.3-45.77,58.67-83.9,102.14-113.33,46.39-31.41,103.28-52.91,169.49-64.11,7.28-1.23,9.03-10.88,2.63-14.56l-122.57-70.64c-9-5.18-19.13-8.06-29.5-8.38-19.77-.61-54.28.89-95.45,13.59-37.95,11.7-74.06,30.49-107.34,55.84-41.66,31.74-78.98,73.92-110.97,125.41-.15.24-15.72,24.82-31.89,56.61-21.29,41.84-33.92,77.03-36.53,101.77l220.06,55c.08-7.21,1.51-11.38,4.72-31.41Z"/><path class="cls-23" d="m1353.24,387.07c-39.61-5.75-85.34,11.81-91.09,51.43-5.75,39.62,13.99,66.92,53.61,72.66,39.62,5.75,84.11-12.24,89.86-51.86,5.75-39.61-12.76-66.49-52.37-72.24Z"/><path class="cls-15" d="m1089.33,650.33c24-98.81,123.57-159.46,222.38-135.45,98.81,24,159.46,123.57,135.45,222.38-24,98.81-123.57,159.46-222.38,135.45-98.81-24.01-159.46-123.57-135.45-222.38Z"/><path class="cls-8" d="m1073.72,646.54c24-98.81,123.57-159.46,222.38-135.45,98.81,24.01,159.46,123.57,135.45,222.38-24,98.81-123.57,159.46-222.38,135.45-98.81-24-159.46-123.57-135.46-222.38Z"/><path class="cls-6" d="m1252.43,859.94c-13.29,0-26.66-1.59-39.91-4.81-43.54-10.58-80.36-37.48-103.67-75.75-23.31-38.27-30.32-83.32-19.74-126.87,10.58-43.54,37.48-80.36,75.75-103.67,38.27-23.31,83.32-30.32,126.87-19.74,89.89,21.84,145.25,112.73,123.41,202.61-10.58,43.54-37.48,80.36-75.75,103.67-26.63,16.22-56.55,24.55-86.96,24.55Zm-.59-325.63c-28.6,0-56.73,7.83-81.77,23.09-35.99,21.92-61.28,56.54-71.23,97.48-9.95,40.95-3.35,83.31,18.57,119.3,21.92,35.99,56.54,61.28,97.49,71.23,40.95,9.95,83.31,3.35,119.3-18.57,35.99-21.92,61.28-56.54,71.23-97.49,20.53-84.52-31.53-169.99-116.05-190.52-12.45-3.02-25.03-4.52-37.53-4.52Z"/><path class="cls-6" d="m1263.07,744.88c1.27-3.41,1.91-6.6,1.92-9.56,0-2.96-.69-5.9-2.09-8.83-1.4-2.93-3.5-5.93-6.29-9.01-2.79-3.07-6.36-6.39-10.71-9.96-7.46-6.2-14.07-12.25-19.85-18.15-5.78-5.9-10.36-11.93-13.74-18.1-3.39-6.17-5.38-12.65-5.99-19.44-.61-6.8.57-14.18,3.54-22.15,2.57-6.91,6.14-12.75,10.71-17.53,4.57-4.77,9.92-8.43,16.04-10.96,6.13-2.53,12.85-3.94,20.18-4.22,7.33-.28,15.07.68,23.22,2.88l9.71-26.09,21,7.82-9.85,26.46c7.16,3.78,13.24,8.31,18.25,13.6,5,5.29,8.76,11.13,11.26,17.52,2.5,6.4,3.69,13.29,3.58,20.7-.12,7.41-1.69,15.18-4.72,23.3l-37.94-14.12c3.63-9.75,4.18-17.86,1.65-24.31-2.53-6.45-7.43-11.03-14.69-13.73-3.94-1.47-7.53-2.18-10.79-2.14-3.25.04-6.16.67-8.7,1.89-2.55,1.23-4.75,2.98-6.59,5.25-1.85,2.27-3.33,4.92-4.45,7.92-1.12,3.01-1.7,5.89-1.73,8.66-.04,2.77.63,5.58,2.01,8.46,1.37,2.87,3.49,5.88,6.35,9.03,2.86,3.15,6.56,6.68,11.08,10.58,7.31,6.33,13.82,12.46,19.54,18.38,5.71,5.92,10.26,11.99,13.63,18.19,3.37,6.21,5.36,12.71,5.96,19.51.6,6.8-.56,14.14-3.49,22.03-2.66,7.15-6.3,13.11-10.91,17.87-4.61,4.76-9.97,8.37-16.06,10.82-6.09,2.45-12.83,3.74-20.2,3.87-7.37.12-15.13-.91-23.28-3.11l-9.03,24.27-20.87-7.77,8.99-24.14c-6.99-3.44-13.42-7.64-19.3-12.6-5.88-4.97-10.58-10.72-14.12-17.27-3.54-6.55-5.58-13.9-6.13-22.07-.55-8.16.99-17.12,4.62-26.88l37.94,14.12c-2.15,5.77-3.13,10.89-2.95,15.35.18,4.46,1.2,8.36,3.05,11.69,1.85,3.33,4.33,6.1,7.44,8.32,3.11,2.22,6.46,4,10.05,5.34,4.11,1.53,7.92,2.35,11.42,2.45,3.5.1,6.65-.39,9.45-1.48,2.8-1.09,5.2-2.72,7.2-4.89,2-2.17,3.57-4.76,4.68-7.77Z"/><rect class="cls-12" x="424.24" y="831.53" width="718.1" height="301.15" transform="translate(-237.38 249.77) rotate(-15.77)"/><path class="cls-23" d="m443.46,949.84l65.24,231.09,610.42-172.34-65.24-231.09-610.42,172.34Zm654.44,16.91c5.55,19.66-5.87,40.07-25.53,45.62l-525.55,148.38c-17.59,4.97-35.87-5.27-40.84-22.86l-41.42-146.72c-5.47-19.38,5.79-39.51,25.17-44.98l523.59-147.82c18.95-5.35,38.65,5.68,44,24.63l40.59,143.75Z"/><path class="cls-23" d="m854.32,958.59c-11.22-39.73-52.52-62.85-92.25-51.63-39.73,11.22-62.85,52.52-51.63,92.25,11.22,39.73,52.52,62.85,92.25,51.63,39.73-11.22,62.85-52.52,51.63-92.25Z"/><path class="cls-24" d="m1087.91,739.64l81.82,289.82-540.31,152.55c25-15.67,253.92-91.02,301.04-195.48,57.19-126.78,12.34-196.24,13.56-206.26l143.88-40.62Z"/><rect class="cls-12" x="1174" y="822.48" width="718.1" height="301.15" transform="translate(-4.24 6.72) rotate(-.25)"/><path class="cls-23" d="m1214.24,851.06l1.05,240.12,634.27-2.77-1.05-240.12-634.27,2.77Zm626.06,191.36c.09,20.43-16.38,37.04-36.81,37.13l-546.09,2.39c-18.28.08-33.16-14.67-33.24-32.95l-.67-152.45c-.09-20.14,16.15-36.52,36.29-36.61l544.05-2.38c19.68-.09,35.72,15.81,35.81,35.5l.66,149.37Z"/><path class="cls-23" d="m1532.71,894.97c-41.28.18-74.61,33.8-74.43,75.08.18,41.29,33.8,74.61,75.08,74.43,41.28-.18,74.61-33.8,74.43-75.08-.18-41.29-33.79-74.61-75.08-74.43Z"/><path class="cls-24" d="m1891.44,820.92l1.32,301.15-561.43,2.46c28.28-8.42,269.01-19.78,342.36-107.83,89.01-106.86,64.38-185.79,68.24-195.12l149.51-.65Z"/><path class="cls-15" d="m1454.35,1038.89c-49.09-89.05-161.08-121.45-250.13-72.36-89.05,49.09-121.45,161.08-72.36,250.13,49.09,89.05,161.08,121.45,250.13,72.36,89.05-49.09,121.45-161.08,72.36-250.13Z"/><path class="cls-8" d="m1440.28,1046.64c-49.09-89.05-161.08-121.45-250.13-72.36-89.05,49.09-121.45,161.08-72.36,250.13,49.09,89.05,161.08,121.45,250.13,72.36,89.05-49.09,121.45-161.08,72.36-250.13Z"/><path class="cls-6" d="m1280.32,1305.27c-15.66,0-31.4-2.21-46.86-6.69-43.04-12.45-78.66-40.92-100.29-80.16-21.63-39.24-26.69-84.56-14.24-127.6,12.45-43.05,40.92-78.66,80.16-100.3,39.24-21.63,84.56-26.69,127.6-14.24,43.05,12.45,78.66,40.92,100.3,80.16,44.65,81.01,15.08,183.24-65.93,227.9-25.15,13.86-52.8,20.92-80.75,20.92Zm-.46-325.65c-26.28,0-52.28,6.63-75.93,19.67-76.17,41.99-103.99,138.13-61.99,214.3,20.34,36.9,53.84,63.67,94.31,75.38,40.48,11.71,83.09,6.95,119.99-13.39,76.17-41.99,103.99-138.13,61.99-214.3-20.34-36.9-53.83-63.67-94.31-75.38-14.53-4.2-29.34-6.29-44.06-6.29Z"/><path class="cls-6" d="m1323.81,1168.93c-1.37-3.38-3.05-6.15-5.05-8.34-2-2.19-4.5-3.88-7.51-5.1-3.01-1.21-6.59-2.01-10.72-2.39-4.14-.38-9.01-.41-14.63-.1-9.69.47-18.65.48-26.89.04-8.24-.44-15.69-1.8-22.36-4.05-6.66-2.26-12.51-5.68-17.55-10.28-5.04-4.6-9.16-10.84-12.36-18.71-2.77-6.83-4.09-13.55-3.95-20.16.14-6.61,1.61-12.92,4.41-18.92,2.8-6,6.81-11.59,12.02-16.75,5.21-5.16,11.57-9.68,19.06-13.57l-10.48-25.8,20.76-8.43,10.62,26.16c7.83-2.06,15.38-2.83,22.64-2.31,7.26.52,13.98,2.28,20.14,5.3,6.17,3.03,11.71,7.3,16.63,12.84,4.92,5.54,9.01,12.33,12.27,20.36l-37.51,15.23c-3.92-9.64-8.99-15.99-15.21-19.03-6.22-3.04-12.93-3.11-20.11-.19-3.89,1.58-7.03,3.49-9.4,5.71-2.37,2.22-4.08,4.65-5.13,7.28-1.05,2.63-1.49,5.4-1.3,8.33.18,2.92.87,5.87,2.08,8.85,1.21,2.97,2.73,5.49,4.58,7.55,1.84,2.06,4.24,3.68,7.2,4.87,2.95,1.19,6.55,1.98,10.78,2.36,4.24.39,9.35.49,15.32.31,9.66-.27,18.6-.16,26.82.34,8.22.5,15.67,1.9,22.34,4.2,6.68,2.3,12.54,5.75,17.58,10.34,5.04,4.6,9.15,10.8,12.31,18.6,2.87,7.07,4.22,13.92,4.04,20.55-.18,6.63-1.69,12.91-4.53,18.83-2.83,5.93-6.92,11.43-12.27,16.5-5.35,5.07-11.77,9.55-19.26,13.44l9.74,23.99-20.63,8.38-9.69-23.87c-7.48,2.19-15.06,3.44-22.74,3.76-7.68.31-15.04-.75-22.08-3.18-7.03-2.43-13.51-6.47-19.43-12.12-5.92-5.65-10.84-13.29-14.75-22.93l37.5-15.23c2.32,5.71,5.05,10.15,8.2,13.31,3.15,3.17,6.53,5.35,10.14,6.55,3.61,1.2,7.31,1.57,11.11,1.11,3.79-.46,7.46-1.42,11.01-2.86,4.07-1.65,7.42-3.62,10.07-5.91,2.65-2.29,4.63-4.78,5.96-7.48,1.33-2.69,1.99-5.51,2-8.47.01-2.95-.59-5.92-1.79-8.89Z"/><path class="cls-15" d="m1103.61,869.71c-6.59-76.12-73.64-132.49-149.76-125.9-76.12,6.59-132.49,73.64-125.9,149.76,6.59,76.12,73.64,132.49,149.76,125.9s132.49-73.63,125.9-149.76Z"/><path class="cls-8" d="m1091.59,870.74c-6.59-76.12-73.64-132.49-149.76-125.9-76.12,6.59-132.49,73.64-125.9,149.76,6.59,76.12,73.64,132.49,149.76,125.9,76.12-6.58,132.49-73.63,125.91-149.76Z"/><path class="cls-6" d="m953.8,1010.35c-64.63,0-119.81-49.62-125.49-115.19h0c-5.99-69.24,45.47-130.45,114.71-136.44,33.54-2.9,66.21,7.43,91.98,29.1,25.77,21.67,41.56,52.07,44.47,85.62,5.99,69.24-45.47,130.45-114.71,136.44-3.68.32-7.34.47-10.96.47Zm-117.99-115.83c5.63,65.11,63.21,113.52,128.31,107.87,65.11-5.63,113.5-63.19,107.87-128.31-2.73-31.54-17.58-60.13-41.81-80.51-24.24-20.37-54.97-30.09-86.49-27.36-65.11,5.63-113.5,63.19-107.87,128.31h0Z"/><path class="cls-6" d="m974.34,919.25c.09-2.74-.22-5.16-.93-7.26-.71-2.11-1.91-4.04-3.61-5.79-1.7-1.75-3.91-3.38-6.64-4.91-2.73-1.52-6.06-3.03-10.02-4.52-6.8-2.63-12.96-5.35-18.48-8.17-5.53-2.82-10.23-6.02-14.12-9.59-3.89-3.58-6.86-7.72-8.92-12.41-2.06-4.7-2.99-10.24-2.79-16.62.18-5.54,1.32-10.55,3.43-15.05,2.11-4.5,5.04-8.38,8.79-11.65,3.75-3.27,8.21-5.88,13.36-7.84,5.15-1.96,10.89-3.13,17.22-3.51l.67-20.91,16.83.53-.67,21.2c6,.97,11.42,2.75,16.26,5.31,4.83,2.57,8.91,5.83,12.22,9.78,3.31,3.96,5.82,8.58,7.51,13.89,1.69,5.3,2.43,11.21,2.23,17.72l-30.4-.96c.25-7.82-1.3-13.72-4.65-17.71-3.35-3.98-7.93-6.07-13.75-6.26-3.15-.1-5.89.25-8.19,1.06-2.31.8-4.22,1.95-5.74,3.43-1.52,1.49-2.66,3.26-3.43,5.32-.77,2.06-1.19,4.3-1.27,6.71-.08,2.41.21,4.6.84,6.58.64,1.98,1.79,3.82,3.46,5.54,1.66,1.71,3.89,3.35,6.69,4.91,2.8,1.56,6.27,3.18,10.43,4.88,6.72,2.76,12.83,5.56,18.32,8.41,5.49,2.85,10.18,6.08,14.06,9.69,3.89,3.61,6.86,7.77,8.92,12.46,2.06,4.7,2.99,10.2,2.79,16.52-.18,5.73-1.35,10.85-3.49,15.34-2.14,4.5-5.09,8.35-8.84,11.55-3.75,3.21-8.24,5.74-13.46,7.59-5.22,1.85-10.99,2.97-17.32,3.36l-.62,19.44-16.73-.53.62-19.35c-5.8-.77-11.39-2.22-16.76-4.35-5.37-2.13-10.11-5.1-14.19-8.91-4.09-3.81-7.31-8.56-9.66-14.25-2.35-5.68-3.4-12.43-3.15-20.25l30.4.97c-.15,4.62.38,8.5,1.58,11.64,1.2,3.14,2.86,5.67,4.97,7.59,2.12,1.92,4.55,3.31,7.29,4.14,2.74.84,5.56,1.3,8.43,1.39,3.29.11,6.2-.22,8.72-.99,2.52-.77,4.64-1.87,6.37-3.32,1.73-1.44,3.05-3.18,3.96-5.21.91-2.03,1.4-4.24,1.48-6.65Z"/><path class="cls-15" d="m1063.21,497.74c-20.54-34.24-64.96-45.35-99.2-24.81-34.24,20.54-45.35,64.96-24.8,99.2,20.54,34.24,64.96,45.35,99.2,24.81,34.24-20.54,45.35-64.96,24.8-99.2Z"/><path class="cls-8" d="m1057.8,500.99c-20.54-34.24-64.96-45.35-99.2-24.8-34.24,20.54-45.35,64.96-24.8,99.2,20.54,34.24,64.96,45.35,99.2,24.8,34.24-20.54,45.35-64.96,24.8-99.2Z"/><path class="cls-6" d="m996.35,604.78c-22.4,0-44.26-11.41-56.6-31.97h0c-18.69-31.15-8.55-71.7,22.6-90.38,31.15-18.69,71.7-8.55,90.38,22.6,9.05,15.09,11.69,32.8,7.42,49.87-4.27,17.07-14.93,31.46-30.02,40.51-10.58,6.35-22.25,9.37-33.78,9.37Zm-53.23-33.99c17.57,29.29,55.7,38.83,84.99,21.25,14.19-8.51,24.21-22.04,28.23-38.09,4.01-16.05,1.54-32.71-6.98-46.9-17.57-29.29-55.7-38.82-84.99-21.25-29.29,17.57-38.82,55.7-21.25,84.99h0Z"/><path class="cls-6" d="m1013.85,550.65c-.59-1.31-1.29-2.37-2.1-3.2-.81-.83-1.82-1.46-3.02-1.89-1.2-.43-2.61-.69-4.24-.78-1.63-.09-3.54-.03-5.74.17-3.79.32-7.31.46-10.55.4-3.24-.06-6.19-.48-8.83-1.27-2.65-.79-4.99-2.05-7.04-3.78-2.05-1.73-3.75-4.12-5.12-7.17-1.19-2.64-1.8-5.26-1.84-7.86-.04-2.59.44-5.09,1.46-7.49,1.01-2.4,2.51-4.65,4.48-6.74,1.97-2.1,4.4-3.97,7.28-5.6l-4.48-9.98,8.03-3.61,4.54,10.11c3.04-.92,6-1.33,8.85-1.23,2.86.1,5.52.69,7.98,1.79,2.46,1.1,4.7,2.7,6.71,4.8,2.01,2.1,3.72,4.71,5.11,7.82l-14.5,6.51c-1.68-3.73-3.76-6.14-6.24-7.25-2.49-1.1-5.12-1.03-7.89.21-1.51.68-2.71,1.47-3.61,2.38-.9.91-1.53,1.89-1.91,2.93-.37,1.05-.5,2.14-.39,3.29.11,1.15.43,2.29.94,3.44.52,1.15,1.15,2.12,1.9,2.9.75.78,1.72,1.38,2.89,1.81,1.18.42,2.6.68,4.27.77,1.67.09,3.67.06,6.01-.1,3.79-.25,7.3-.33,10.53-.25,3.23.08,6.17.52,8.83,1.33,2.65.81,5,2.07,7.05,3.81,2.04,1.73,3.74,4.11,5.1,7.12,1.23,2.73,1.86,5.4,1.88,8,.02,2.6-.48,5.09-1.51,7.45-1.03,2.37-2.55,4.58-4.58,6.65-2.02,2.07-4.48,3.92-7.37,5.55l4.17,9.27-7.98,3.58-4.15-9.23c-2.9.97-5.86,1.57-8.87,1.8-3.01.23-5.91-.08-8.71-.93-2.79-.85-5.39-2.35-7.8-4.48-2.4-2.13-4.44-5.06-6.12-8.79l14.5-6.52c.99,2.21,2.13,3.91,3.41,5.11,1.28,1.2,2.64,2.01,4.07,2.43,1.43.42,2.89.51,4.38.28,1.48-.24,2.91-.66,4.28-1.28,1.57-.71,2.86-1.53,3.87-2.46,1.01-.94,1.75-1.94,2.23-3.02.48-1.08.7-2.19.66-3.35-.04-1.16-.31-2.31-.83-3.46Z"/><path class="cls-15" d="m1323.81,242.86c-38.66-10.01-78.11,13.21-88.12,51.86-10.01,38.66,13.2,78.11,51.86,88.12,38.66,10.01,78.11-13.21,88.12-51.86,10.01-38.66-13.21-78.11-51.86-88.12Z"/><path class="cls-8" d="m1317.71,241.28c-38.66-10.01-78.11,13.21-88.12,51.86-10.01,38.66,13.21,78.11,51.86,88.12,38.66,10.01,78.11-13.21,88.12-51.86,10.01-38.66-13.21-78.11-51.86-88.12Z"/><path class="cls-6" d="m1299.35,377.98c-5.45,0-10.99-.68-16.51-2.11-17.03-4.41-31.33-15.19-40.25-30.36-8.93-15.17-11.41-32.9-7-49.93h0c4.41-17.03,15.2-31.33,30.36-40.26,15.17-8.93,32.9-11.41,49.93-7,17.04,4.41,31.33,15.19,40.26,30.36,8.92,15.17,11.41,32.9,7,49.93-7.68,29.65-34.49,49.36-63.78,49.37Zm-.09-127.86c-10.91,0-21.66,2.91-31.31,8.59-14.26,8.39-24.4,21.84-28.55,37.85h0c-4.15,16.02-1.81,32.69,6.58,46.95,8.39,14.26,21.84,24.4,37.86,28.55,5.19,1.34,10.4,1.99,15.52,1.99,27.55,0,52.76-18.54,59.98-46.42,8.57-33.07-11.37-66.94-44.44-75.5-5.18-1.34-10.43-2-15.64-2Z"/><path class="cls-6" d="m1303.35,332.88c.52-1.33.79-2.58.81-3.74.02-1.16-.24-2.32-.77-3.48-.53-1.16-1.34-2.35-2.41-3.57-1.08-1.22-2.46-2.55-4.15-3.97-2.89-2.48-5.45-4.89-7.68-7.24-2.23-2.35-3.99-4.75-5.29-7.19-1.29-2.44-2.04-5-2.24-7.67-.2-2.67.31-5.56,1.52-8.68,1.05-2.7,2.49-4.97,4.31-6.82,1.82-1.85,3.94-3.25,6.36-4.21,2.42-.96,5.07-1.47,7.95-1.54,2.88-.07,5.92.36,9.1,1.27l3.97-10.19,8.2,3.19-4.03,10.33c2.79,1.53,5.15,3.34,7.09,5.45,1.93,2.11,3.37,4.42,4.32,6.95.94,2.53,1.37,5.24,1.28,8.15-.09,2.91-.75,5.95-1.99,9.12l-14.81-5.77c1.48-3.81,1.75-6.99.79-9.54-.96-2.55-2.85-4.37-5.69-5.48-1.54-.6-2.95-.9-4.22-.9-1.28,0-2.42.23-3.43.69-1.01.47-1.88,1.14-2.62,2.02-.74.88-1.34,1.91-1.79,3.09-.46,1.17-.7,2.3-.73,3.39-.03,1.09.22,2.19.74,3.33.52,1.13,1.33,2.33,2.44,3.58,1.11,1.25,2.54,2.66,4.29,4.22,2.83,2.53,5.35,4.97,7.56,7.33,2.21,2.36,3.96,4.77,5.24,7.22,1.29,2.46,2.03,5.02,2.23,7.7.2,2.67-.3,5.55-1.5,8.63-1.09,2.79-2.55,5.11-4.39,6.95-1.84,1.84-3.96,3.23-6.37,4.15-2.41.93-5.06,1.39-7.95,1.4-2.9,0-5.94-.45-9.12-1.36l-3.69,9.47-8.15-3.18,3.67-9.43c-2.73-1.39-5.22-3.08-7.5-5.06-2.28-1.98-4.09-4.27-5.44-6.86-1.35-2.59-2.11-5.49-2.28-8.7-.17-3.21.49-6.72,1.98-10.53l14.81,5.77c-.88,2.25-1.29,4.26-1.25,6.01.04,1.75.42,3.29,1.13,4.61.71,1.32,1.66,2.42,2.87,3.31,1.21.89,2.51,1.61,3.91,2.15,1.6.63,3.1.97,4.47,1.03,1.37.06,2.61-.11,3.72-.53,1.1-.41,2.06-1.04,2.86-1.88.8-.84,1.43-1.85,1.89-3.02Z"/><path class="cls-15" d="m1464.73,852.03c-16.18-26.96-7.43-61.94,19.53-78.12,26.97-16.18,61.94-7.43,78.12,19.53,16.18,26.96,7.43,61.94-19.53,78.12-26.97,16.18-61.94,7.43-78.12-19.54Z"/><path class="cls-8" d="m1460.47,854.59c-16.18-26.97-7.43-61.94,19.53-78.12,26.97-16.18,61.94-7.43,78.12,19.53,16.18,26.97,7.43,61.94-19.53,78.12-26.97,16.18-61.94,7.43-78.12-19.53Z"/><path class="cls-6" d="m1509.73,877.74c-17.64,0-34.86-8.98-44.57-25.18h0c-14.72-24.53-6.73-56.46,17.8-71.18,24.53-14.72,56.46-6.73,71.18,17.8,14.72,24.53,6.73,56.46-17.8,71.17-8.34,5-17.53,7.38-26.6,7.38Zm-41.92-26.77c13.84,23.07,43.87,30.58,66.93,16.74,23.07-13.84,30.57-43.86,16.74-66.93-13.84-23.07-43.86-30.57-66.93-16.74-23.07,13.84-30.57,43.86-16.73,66.93h0Z"/><path class="cls-6" d="m1523.51,835.11c-.46-1.03-1.01-1.87-1.65-2.52-.64-.65-1.43-1.15-2.38-1.49-.95-.34-2.06-.55-3.34-.62-1.28-.07-2.79-.02-4.52.14-2.99.25-5.76.36-8.31.32-2.55-.04-4.87-.38-6.96-1-2.08-.62-3.93-1.61-5.54-2.98-1.61-1.37-2.96-3.25-4.03-5.64-.94-2.08-1.42-4.14-1.45-6.19-.03-2.04.35-4.01,1.15-5.9.8-1.89,1.97-3.66,3.53-5.31,1.55-1.65,3.46-3.12,5.74-4.41l-3.53-7.85,6.32-2.84,3.58,7.96c2.4-.72,4.72-1.05,6.97-.97,2.25.08,4.34.55,6.28,1.41,1.94.87,3.7,2.13,5.29,3.78,1.58,1.66,2.92,3.71,4.02,6.15l-11.42,5.13c-1.32-2.94-2.96-4.84-4.92-5.71-1.96-.87-4.03-.81-6.22.17-1.19.53-2.13,1.16-2.84,1.87-.71.71-1.21,1.48-1.5,2.31-.29.82-.4,1.69-.31,2.59.09.9.34,1.8.74,2.71.41.91.91,1.67,1.5,2.28.59.62,1.35,1.09,2.28,1.42.93.34,2.05.54,3.36.61,1.31.07,2.89.05,4.74-.08,2.98-.19,5.75-.26,8.29-.2,2.55.06,4.86.41,6.95,1.05,2.09.63,3.94,1.64,5.55,3,1.61,1.37,2.95,3.23,4.02,5.61.97,2.15,1.46,4.26,1.48,6.3.02,2.05-.38,4.01-1.19,5.87-.81,1.86-2.01,3.61-3.61,5.24-1.59,1.63-3.53,3.09-5.8,4.37l3.28,7.3-6.28,2.82-3.26-7.27c-2.29.76-4.61,1.23-6.98,1.42-2.37.18-4.66-.06-6.86-.73-2.2-.67-4.25-1.85-6.14-3.53-1.89-1.68-3.5-3.99-4.82-6.92l11.42-5.13c.78,1.74,1.68,3.08,2.68,4.02,1.01.94,2.08,1.58,3.21,1.91,1.13.33,2.28.4,3.45.22,1.17-.19,2.29-.52,3.37-1.01,1.24-.56,2.25-1.2,3.05-1.94.79-.74,1.38-1.53,1.76-2.38.38-.85.55-1.73.52-2.64-.03-.91-.25-1.82-.66-2.73Z"/><path class="cls-6" d="m814.78,796.74s-39.7-27.96-69.45-22.48c-29.75,5.48-61.95,43.76-61.95,43.76,0,0,59.4,6.58,81.42-1.76,22.02-8.34,49.98-19.52,49.98-19.52Z"/><path class="cls-23" d="m1469.26,739.1s67.72-36.82,93.55-24.62c25.84,12.2,39.54,41.17,39.54,41.17,0,0-31.32,3.13-55.59,1.96-24.27-1.17-40.71-22.92-77.51-18.51Z"/><path class="cls-6" d="m1577.3,456.67s45.25-22.4,65.56-17.18c20.3,5.22,40.82,17.18,40.82,17.18,0,0-25.22,15.18-49.75,14.14-24.53-1.04-56.63-14.14-56.63-14.14Z"/><path class="cls-6" d="m1282.15,226.02s-23.36-28.97-15.2-50.1c8.16-21.14,15.2-32.1,15.2-32.1,0,0,21.39,24.27,20.48,41.1-.91,16.83-20.48,41.1-20.48,41.1Z"/><path class="cls-23" d="m1378,277.1s-5.46-36.46,11.45-46.9c16.91-10.44,44.05-10.44,44.05-10.44,0,0-4.18,30.79-15.66,37.58-11.48,6.79-34.8,10.5-39.84,19.76Z"/><path class="cls-23" d="m1117.3,1248.48s22.88,32.36,23.92,43.84c1.04,11.48-32.28,40.71-32.28,40.71,0,0-10.78-28.18-6.08-42.28s14.44-42.28,14.44-42.28Z"/><path class="cls-23" d="m1074.78,1063.62s-34,11.48-38.7,30.27c-4.7,18.79-3.13,32.23-3.13,32.23,0,0,49.22-23.88,41.83-62.5Z"/><path class="cls-23" d="m1085.14,1063.62s10.5,12,10.73,20.36c.23,8.35-5.37,15.62-5.37,15.62,0,0-12.38-9.97-5.36-35.98Z"/></g><path class="cls-8" d="m1515.68,1578.32v20.22c0,1.61-.5,3.11-1.34,4.35-.89,1.31-2.16,2.34-3.66,2.92-.46.18-.94.31-1.43.4-.45.08-.91.12-1.38.12l-322.01-.05c-1.29,0-2.52-.32-3.59-.88-2.28-1.19-3.91-3.49-4.17-6.16-.01-.12-.02-.23-.03-.35,0-.13,0-.27,0-.4v-20.22c0-.13,0-.27.01-.4.21-4.1,3.63-7.39,7.78-7.39l322.01.05c.47,0,.93.04,1.38.12.49.08.97.22,1.43.4,1.49.58,2.77,1.61,3.66,2.92.84,1.25,1.33,2.74,1.33,4.35Z"/><path class="cls-6" d="m1357.55,1606.31l-172.51-.03c-1.15,0-2.24-.32-3.2-.88-2.04-1.19-3.49-3.49-3.72-6.16-.01-.12-.02-.23-.03-.35,0-.13,0-.27,0-.4v-20.22c0-.13,0-.27.01-.4.19-4.1,3.24-7.39,6.95-7.39l151.33.02c2.35,10.25,7.74,24.32,20.12,34.92.35.3.7.59,1.06.88Z"/><rect class="cls-6" x="1472.83" y="1570.53" width="3.66" height="35.8"/><rect class="cls-6" x="1460.45" y="1570.53" width="3.66" height="35.8"/><rect class="cls-6" x="1445.59" y="1570.52" width="3.66" height="35.8"/><rect class="cls-6" x="1422.82" y="1570.52" width="3.66" height="35.8"/><rect class="cls-6" x="1398.74" y="1570.52" width="3.66" height="35.8"/><rect class="cls-6" x="1361.82" y="1570.51" width="3.66" height="35.8"/><rect class="cls-6" x="1327.26" y="1570.51" width="3.66" height="35.8"/><rect class="cls-6" x="1296.39" y="1570.5" width="3.66" height="35.8"/><rect class="cls-6" x="1484.63" y="1570.53" width="3.66" height="35.8"/><rect class="cls-6" x="1492.42" y="1570.53" width="3.66" height="35.8"/><rect class="cls-6" x="1499.94" y="1570.53" width="3.66" height="35.8"/><path class="cls-6" d="m1509.26,1570.66v35.55c-.45.08-.91.13-1.38.13h-2.29s0-35.8,0-35.8h2.29c.47,0,.93.04,1.37.13Z"/><path class="cls-6" d="m1514.34,1573.98v28.92c-.89,1.31-2.17,2.34-3.66,2.91v-34.75c1.5.58,2.77,1.61,3.66,2.92Z"/><path class="cls-8" d="m1480.45,1542.53v20.22c0,1.61-.49,3.11-1.34,4.35-.89,1.31-2.16,2.34-3.66,2.91-.46.18-.93.31-1.43.4-.45.08-.9.12-1.37.12l-322.01-.05c-4.15,0-7.57-3.29-7.78-7.39,0-.13,0-.27,0-.4v-20.22c0-.13,0-.27.01-.4.19-3.79,3.14-6.89,6.86-7.33.3-.04.61-.06.92-.06l322.02.05c.47,0,.92.04,1.37.12.49.09.97.22,1.42.4,1.5.58,2.77,1.61,3.66,2.92.84,1.25,1.34,2.74,1.34,4.35Z"/><path class="cls-6" d="m1322.32,1570.51l-172.52-.02c-3.7,0-6.76-3.29-6.95-7.39,0-.13,0-.27,0-.4v-20.22c0-.13,0-.27.01-.4.17-3.79,2.8-6.89,6.13-7.33.27-.04.54-.06.82-.06l151.33.02s0,.04.01.05c2.42,10.53,8.05,25.08,21.17,35.75Z"/><rect class="cls-6" x="1437.6" y="1534.73" width="3.66" height="35.8"/><rect class="cls-6" x="1425.21" y="1534.73" width="3.66" height="35.8"/><rect class="cls-6" x="1410.36" y="1534.73" width="3.66" height="35.8"/><rect class="cls-6" x="1387.58" y="1534.72" width="3.66" height="35.8"/><rect class="cls-6" x="1363.5" y="1534.72" width="3.66" height="35.8"/><rect class="cls-6" x="1326.59" y="1534.71" width="3.66" height="35.8"/><rect class="cls-6" x="1292.02" y="1534.71" width="3.66" height="35.8"/><rect class="cls-6" x="1261.16" y="1534.7" width="3.66" height="35.8"/><rect class="cls-6" x="1449.39" y="1534.73" width="3.66" height="35.8"/><rect class="cls-6" x="1457.18" y="1534.73" width="3.66" height="35.8"/><rect class="cls-6" x="1464.71" y="1534.74" width="3.66" height="35.8"/><path class="cls-6" d="m1474.03,1534.86v35.55c-.45.08-.91.12-1.38.13h-2.29s0-35.8,0-35.8h2.29c.47,0,.92.04,1.37.13Z"/><path class="cls-6" d="m1479.11,1538.18v28.92c-.89,1.31-2.17,2.34-3.66,2.92v-34.75c1.5.58,2.77,1.61,3.66,2.92Z"/><path class="cls-8" d="m1514.05,1506.78v20.22c0,1.61-.49,3.1-1.34,4.35-.89,1.31-2.16,2.34-3.66,2.92-.46.18-.93.31-1.43.4-.15.03-.3.05-.45.07-.08,0-.17.02-.25.03-.08,0-.17.01-.25.02-.14,0-.27.01-.41.01l-322.01-.05c-4.15,0-7.57-3.29-7.78-7.39,0-.13,0-.27,0-.4v-20.22c0-.13,0-.27.01-.4,0-.11.01-.22.02-.33.31-3.3,2.71-6.02,5.84-6.82.08-.02.16-.04.24-.06.54-.12,1.11-.18,1.68-.18l322.01.05c.24,0,.47.01.7.03.1.01.21.02.31.04h0c.12.02.24.04.36.06.49.09.97.22,1.43.4,1.49.58,2.77,1.61,3.66,2.92.84,1.25,1.33,2.74,1.33,4.35Z"/><path class="cls-6" d="m1355.92,1534.77l-172.52-.03c-3.7,0-6.76-3.29-6.95-7.39,0-.13,0-.27,0-.4v-20.22c0-.13,0-.27.01-.4,0-.11.01-.22.02-.33.28-3.37,2.51-6.14,5.4-6.87.1-.03.2-.05.3-.07.4-.08.81-.12,1.23-.12l151.33.02c.02.08.04.17.06.25,2.44,10.5,8.07,24.9,21.05,35.49.02.02.04.04.07.06Z"/><rect class="cls-6" x="1471.2" y="1498.98" width="3.66" height="35.8"/><rect class="cls-6" x="1458.81" y="1498.98" width="3.66" height="35.8"/><rect class="cls-6" x="1443.96" y="1498.98" width="3.66" height="35.8"/><rect class="cls-6" x="1421.19" y="1498.98" width="3.66" height="35.8"/><rect class="cls-6" x="1397.1" y="1498.97" width="3.66" height="35.8"/><rect class="cls-6" x="1360.19" y="1498.97" width="3.66" height="35.8"/><rect class="cls-6" x="1325.63" y="1498.96" width="3.66" height="35.8"/><rect class="cls-6" x="1294.76" y="1498.96" width="3.66" height="35.8"/><rect class="cls-6" x="1482.99" y="1498.99" width="3.66" height="35.8"/><rect class="cls-6" x="1490.78" y="1498.99" width="3.66" height="35.8"/><rect class="cls-6" x="1498.31" y="1498.99" width="3.66" height="35.8"/><path class="cls-6" d="m1507.63,1499.11v35.55c-.46.08-.91.13-1.38.12h-2.29v-35.8s2.29,0,2.29,0c.47,0,.93.04,1.38.12Z"/><path class="cls-6" d="m1512.71,1502.43v28.92c-.89,1.31-2.17,2.34-3.66,2.92v-34.75c1.5.58,2.77,1.61,3.66,2.92Z"/><rect class="cls-6" x="375.45" y="1568.74" width="137.93" height="11.69"/><rect class="cls-6" x="1183.45" y="1533.78" width="117.64" height="52.74"/><polygon class="cls-6" points="1318.92 1567.51 1326.63 1574.59 1325.55 1584.85 1280.45 1583.54 1276.16 1564.45 1318.92 1567.51"/><path class="cls-20" d="m574.49,645.69c-.09-2.35-1.91-27.71-40.53-29.03,0,0,14.23,2.12,21.11,9.75,0,0-11.77-9.46-22.3-6.14-10.53,3.32-16.72,21.77-16.78,27.84-.06,6.07,5.79,25.63,12.47,27.29,2.53.63,5.45.46,8.09,0-1.78,2.78-3.52,5.84-5.19,9.26-15.41,31.63.48,62.55,13.53,59.13,8.37-2.19,10.73,12.09,10.73,12.09l81.29-65.81s-29.86-61.78-62.44-44.39Z"/><path class="cls-25" d="m962.91,1132.98l1.88,11.93c63.27,164.28,19.32,456.69,20.73,461.35l263.42.34c-81.73-384.75-286.03-473.63-286.03-473.63Z"/><path class="cls-18" d="m602.79,1577.62l-17.27,6.43s-75-104.02-84.23-195.53c-1.65-16.34-1.1-32.17,2.47-46.79,0,0-.73-4.19-2.02-11.59-.59-3.45-1.33-7.61-2.16-12.38-2.44-13.97-5.79-33.09-9.63-54.85-8.82-50.09-20.26-114.11-29.14-161.18l4.65-1.49,50.34-16.24,10.4-33.04,37.48-9.87s8.37,16.38,15.86,93.76c1.38,10.15,2.64,21.34,3.58,33.48,2.92,37.05,3.13,83-3.57,135.54-1.72,13.45-3.89,27.33-6.58,41.6-1.97,10.46-2.27,24.71-1.44,41.08,3.78,74.81,31.24,191.08,31.24,191.08Z"/><path class="cls-16" d="m583.14,1168.33l-81.39,161.82c-.59-3.45-1.33-7.61-2.16-12.38-2.44-13.97-5.79-33.09-9.63-54.85-8.82-50.09-20.26-114.11-29.14-161.18l4.65-1.49,50.34-16.24,10.4-33.04,37.48-9.87s8.37,16.38,15.86,93.76c1.38,10.15,2.64,21.34,3.58,33.48Z"/><path class="cls-18" d="m547.33,1061.86l-1.88-16.16c-31.57,8.38-115.91-23.43-115.91-23.43,0,0-30.58,26.88-26.57,91.32,1.96,31.45,5.54,165.1,9.28,204.65,1.35,14.33,2.53,24.53,3.02,28.61,0,.02,0,.03,0,.04.15,1.24-.29,2.42-.92,3.5-5.5,9.34-10.06,19.07-13.8,29.02-36.7,97.79,5.65,218.22,5.65,218.22l10.99-4.43s24.1-134.02,43.68-193.23c3.33-10.04,6.51-17.93,9.43-22.65,8.51-13.74,16.41-36.19,23.59-62.9,13.56-50.49,24.46-116.17,31.73-166.86,1,.05,21.71-85.7,21.71-85.7Z"/><path class="cls-10" d="m590.62,861.94c2.22-8.1,5.88-14.5,9.67-19.34.52-.78,1.05-1.57,1.83-2.22,6.27-7.45,12.41-10.58,12.41-10.58,3.14-1.31,6.53.26,10.06,4.05v.13c2.88,3.01,6.01,7.58,9.02,13.33.13.13.26.26.26.39.65,1.18,1.31,2.48,2.09,3.92.26.26.39.65.52.92,1.44,3.01,2.87,6.14,4.31,9.41,16.07,35.02,33.19,88.07,47.43,103.88,6.14,6.8,34.24,20.12,56.58,30.05,16.07,7.06,29.14,12.28,29.14,12.28,0,0,16.11-3.14,19.79,0,3.68,3.14,21.15,20.89,17.41,26.72-3.74,5.82-21.67-4.82-25.4-5.83-3.73-1-14.15-5.08-14.15-5.08,0,0-1.04,0-2.87-.13-5.75-.39-19.73-1.18-35.54-2.88-23.78-2.35-52.01-6.53-63.24-13.46-17.12-10.45-45.21-42.47-63.5-74.48-.52-.78-.91-1.57-1.31-2.35-9.54-16.99-16.2-33.84-16.73-47.3-.39-8.23.52-15.29,2.22-21.43Z"/><path class="cls-10" d="m607.64,865.87c-9.91,4.59-21.88,7.72-36.35,8.51-54.27,2.97-66.59-44.6-68.83-76.18,7.82-2.83,14.67-2.56,18.62-2.35,3.85.21,7.87.61,11.18,1.02,6.64-3.47,18.56-20.31,25.46-48.49l2.34,1.09,39.16,18.41s-4.16,12.74-7.23,24.94c-2.4,9.54-4.12,18.76-2.68,21.34,3.09,1.25,4.94,2.04,4.94,2.04,0,0,0,.01.01.04.39,1,8.91,22.7,13.39,49.63Z"/><path class="cls-4" d="m599.21,767.88s-4.16,12.73-7.23,24.94c-22.89-6.39-29.84-30.45-31.93-43.35l39.16,18.41Z"/><path class="cls-10" d="m604.03,781.36s-54.76-12.67-46.35-46.66c8.42-33.98,7.02-58.51,42.34-51.85,35.32,6.65,38.88,21.3,38.83,33.33-.05,12.03-20.36,67.6-34.82,65.18Z"/><path class="cls-20" d="m641.93,696.89c-5.89-12.32-12.82-11.66-17.15-9.48-25.73-23.81-68.86-17.84-68.86-17.84-9.71,23.47-12.88,46.54-12.88,46.54,0,0,8.41,8.61,32.8,8.42,7.45-.06,14.94-3.48,21.75-8.19-13.14,13.24-28.56,21.3-28.56,21.3,30.52-5.84,50.99-41.18,53.09-44.93,2.59,3.82,7.53,11.95,7.95,18.81.57,9.33-2.64,27.44,2.7,28.13,0,0,17.99-24.29,9.16-42.76Z"/><path class="cls-11" d="m640.93,861.89c-1.52-4.55-9.67-19.21-13.36-25.73-1.33-2.36-3.18-4.38-5.41-5.91-4.4-3.02-13.14-8.23-27.93-14.04,0,0,0,.01.01.04.37,1.35,10.25,37.14,6.64,44.78-3.66,7.77-73.03-17.31-76.83-23.03-3.03-4.59-3.12-28.88-3.03-38.34.01-2.35.04-3.79.04-3.79,0,0-25.9-3.51-40.46,2.38,0,0,5.75,12.49,7.86,26.26.2,1.31.37,2.62.49,3.93.28,2.78.37,5.55.21,8.26-.21,3.58-2.06,6.75-5.01,9.85-2.68,2.85-6.32,5.65-10.43,8.66-2.69,1.94-5.58,3.99-8.57,6.2h0c-.25,16.22.89,42.89-2.11,71.34-.76,7.22-3.16,14.12-6.94,20.24-1.49,2.44-3.21,4.75-5.13,6.91-15.29,17.16-42.42,51.35-36.46,72.64.44,20.07,169.75,46.45,166.13,24.4,0,0,25.44-122.63,39.19-152.23.5-1.08.95-2.14,1.35-3.23,4.4-11.68,3.66-23.7,2.17-34.45,7.76-5.51,17.54-5.14,17.54-5.14Z"/><path class="cls-19" d="m535.08,1015.74c-33.4-.35-61.67-35.03-78.96-62.74,3.78-6.12,6.17-13.03,6.94-20.24,3-28.46,1.86-55.13,2.11-71.34h0c2.99-2.21,5.88-4.26,8.57-6.2,4.12-3,7.75-5.81,10.43-8.66,27.35,46.22,96.18,169.67,50.9,169.19Z"/><path class="cls-16" d="m470.1,1606.61h-86.96s-2.09-13.25,2.46-23.31c4.35-9.65,11.17-14.04,9.54-25.71,5.53,5.69,14.53,12.06,27.1,10.37,1.54,2.5,9.94,15.86,15.09,19.56,5.68,4.08,31.02,2.63,32.77,19.09Z"/><path class="cls-16" d="m656.82,1606.61h-86.96s-3.25-13.87,2.46-23.31c5.05-8.35,3.12-13.11-.63-20.02,3.94,1.61,9.04,3.08,14.65,2.76,4.33-.25,8.91-2.21,12.93-4.55,3.74,4.27,19.77,22.43,24.78,26.03,5.68,4.08,31.02,2.63,32.77,19.09Z"/><path class="cls-14" d="m666.49,1111.39l20.67-50.41c2.69-6.58,9.91-9.99,16.61-8.14,6.84-12.87,16.27-23.33,26.96-30.67,11.26-7.75,23.91-12.03,36.39-11.97,6.59.03,13.15,1.27,19.42,3.84,29.39,12.04,42.55,49.17,31.77,85.62l1.61.66s5.02-.35,13.45-.35c26.61,0,87.11,3.54,129.56,33.02,0,0,2.67,2.84,2.77,7.18.05,1.43-.19,3.04-.9,4.75,0,0-68.13-44.12-131.15,1.22-3.87,2.77-7.62,5.34-11.28,7.73l-5.65,13.79c-9.37,22.88-35.75,33.91-58.62,24.54l-57.71-23.65-12.03-4.93c-20.37-8.34-30.22-31.85-21.86-52.22Zm111.89-40.86l23.51,9.64c6.39,2.61,9.75,9.56,8.1,16.08l2.52,1.03c9.56-33.22-2.1-66.71-28.34-77.47-3.68-1.51-7.47-2.5-11.3-2.99-12.08-1.59-24.67,1.66-35.99,8.72-10.75,6.7-20.34,16.83-27.25,29.56l3.47,1.42c3.4-5.79,10.66-8.38,17.05-5.77l23.52,9.64c1.83-4.49,6.2-7.21,10.78-7.21,1.45,0,2.93.28,4.35.86l3.26,1.34c5.91,2.42,8.76,9.23,6.33,15.13Z"/><path class="cls-13" d="m822.36,1153.86c3.66-2.38,7.41-4.96,11.28-7.73,63.02-45.34,131.15-1.22,131.15-1.22.71-1.71.95-3.32.9-4.75-9.54-6.28-45.28-27.18-89.58-20.04-51.9,8.37-61.29,15.59-53.75,33.74Z"/><path class="cls-13" d="m688.34,1163.61l12.03,4.93c-18.03-9.84,4.3-51.43,17.36-78.89,13.06-27.46,32.81-14.91,32.81-14.91,4.53-9.2,14.22-8.71,14.22-8.71.51-8.87,7.27-10.65,7.27-10.65l-3.26-1.34c-1.42-.58-2.91-.86-4.35-.86-4.58,0-8.95,2.72-10.78,7.21l-23.52-9.64c-6.39-2.61-13.65-.01-17.05,5.77l-3.47-1.42c6.91-12.72,16.5-22.86,27.25-29.56,11.32-7.06,23.91-10.31,35.99-8.72-1.89-1.53-3.92-3.66-5.75-6.64-12.48-.05-25.13,4.22-36.39,11.97-10.69,7.34-20.12,17.8-26.96,30.67-6.7-1.85-13.92,1.57-16.61,8.14l-20.67,50.41c-8.36,20.37,1.49,43.88,21.86,52.22Z"/><path class="cls-10" d="m461.52,841.3c.26-37.89,19.08-43.12,19.08-43.12.39-.13.78-.26,1.31-.39,3.27-.52,6.66,1.7,10.19,6.01,4.44,5.36,9.15,14.11,13.98,24.69,7.45,16.86,15.29,38.68,22.6,60.37,4.05,11.89,7.97,23.78,11.89,34.76,2.22,6.66,4.44,12.94,6.53,18.69,4.05,10.97,7.71,19.86,10.97,25.48,2.09,3.66,8.1,8.75,16.07,14.5,13.85,10.06,34.1,22.21,51.75,32.14,7.32,4.18,14.24,7.97,19.99,11.11,4.83,1.04,29.4,6.27,40.9,3.66,12.94-3.01,34.63,12.54,34.63,12.54,0,0,2.35,4.97-6.01,8.36-8.36,3.53-20.12,15.81-38.94,8.36-13.46-5.23-27.7-8.89-34.63-10.58-2.74-.52-4.31-.91-4.31-.91-7.32-1.44-16.07-3.4-25.61-5.49h-.13c-16.33-3.92-34.63-8.62-50.05-13.85-10.85-3.79-20.25-7.84-26.65-11.89-.65-.39-1.18-.79-1.83-1.31-15.29-11.11-33.45-43.77-47.56-78.79-1.96-4.84-3.79-9.67-5.62-14.37-6.53-17.51-11.76-34.76-14.89-49.65-1.96-8.89-3.27-16.99-3.53-23.65-.13-2.35-.26-4.57-.13-6.66Z"/><path class="cls-11" d="m510.3,830.32c-25.15-6.94-48.82,10.93-48.82,10.93.32-37.83,19.15-43.01,19.15-43.01,9.43-5.42,20.62,11.76,29.68,32.08Z"/><path class="cls-8" d="m1074.72,1578.28v20.22c0,1.61-.49,3.1-1.34,4.35-.89,1.31-2.16,2.34-3.66,2.92-.46.18-.94.31-1.43.4-.45.08-.91.12-1.38.12l-322.01-.05c-4.15,0-7.57-3.29-7.78-7.39,0-.13,0-.27,0-.4v-20.22c0-.13,0-.26.01-.4.2-3.79,3.14-6.89,6.86-7.33.3-.04.61-.06.92-.06l322.01.05c.47,0,.93.04,1.38.12.49.09.97.22,1.43.4,1.49.58,2.77,1.61,3.65,2.92.84,1.24,1.34,2.74,1.34,4.35Z"/><path class="cls-6" d="m916.59,1606.26l-172.51-.03c-3.7,0-6.76-3.29-6.95-7.39,0-.13,0-.27,0-.4v-20.22c0-.13,0-.26.01-.4.17-3.79,2.8-6.89,6.13-7.33.27-.04.54-.06.82-.05l151.33.02s0,.04.01.05c2.42,10.54,8.05,25.08,21.17,35.75Z"/><rect class="cls-6" x="1031.88" y="1570.48" width="3.66" height="35.8"/><rect class="cls-6" x="1019.49" y="1570.48" width="3.66" height="35.8"/><rect class="cls-6" x="1004.63" y="1570.48" width="3.66" height="35.8"/><rect class="cls-6" x="981.86" y="1570.47" width="3.66" height="35.8"/><rect class="cls-6" x="957.78" y="1570.47" width="3.66" height="35.8"/><rect class="cls-6" x="920.87" y="1570.46" width="3.66" height="35.8"/><rect class="cls-6" x="886.3" y="1570.46" width="3.66" height="35.8"/><rect class="cls-6" x="855.44" y="1570.45" width="3.66" height="35.8"/><rect class="cls-6" x="1043.67" y="1570.48" width="3.66" height="35.8"/><rect class="cls-6" x="1051.46" y="1570.48" width="3.66" height="35.8"/><rect class="cls-6" x="1058.98" y="1570.48" width="3.66" height="35.8"/><path class="cls-6" d="m1068.31,1570.61v35.55c-.45.08-.91.12-1.38.12h-2.29v-35.8s2.29,0,2.29,0c.47,0,.93.04,1.37.12Z"/><path class="cls-6" d="m1073.39,1573.93v28.92c-.89,1.31-2.17,2.34-3.66,2.92v-34.75c1.5.58,2.77,1.61,3.66,2.92Z"/><path class="cls-8" d="m1018.13,1542.53v20.22c0,1.61-.49,3.1-1.34,4.35-.89,1.31-2.17,2.34-3.66,2.92-.46.18-.93.31-1.43.4-.15.03-.3.05-.45.07-.12.02-.24.03-.36.03-.06,0-.12,0-.18.01-.12,0-.25,0-.38,0l-322.01-.05c-4.15,0-7.57-3.29-7.78-7.39,0-.13,0-.27,0-.4v-20.22c0-.13,0-.27.01-.4.21-4.1,3.63-7.39,7.78-7.39l322.01.05c.14,0,.27,0,.41.01.33.02.65.06.96.11.49.09.97.22,1.43.4.23.09.46.19.68.3.14.07.27.14.4.21.01,0,.03.01.04.03.13.08.26.16.39.25.03.01.05.03.06.04.12.08.24.16.35.25.28.21.54.43.78.68.08.07.15.15.22.23.01.01.03.02.04.04.05.05.09.09.13.15,0,0,.02.02.03.03.08.09.15.19.23.28.11.14.21.28.31.42.84,1.24,1.33,2.74,1.33,4.35Z"/><path class="cls-6" d="m860,1570.51l-172.52-.03c-3.7,0-6.76-3.29-6.95-7.39,0-.13,0-.27,0-.4v-20.22c0-.13,0-.27.01-.4.19-4.1,3.24-7.39,6.95-7.39l151.33.02c.06.27.13.55.2.83,2.51,10.44,8.17,24.51,20.91,34.92.02.02.05.04.07.06Z"/><rect class="cls-6" x="975.29" y="1534.73" width="3.66" height="35.8"/><rect class="cls-6" x="962.9" y="1534.73" width="3.66" height="35.8"/><rect class="cls-6" x="948.04" y="1534.73" width="3.66" height="35.8"/><rect class="cls-6" x="925.27" y="1534.72" width="3.66" height="35.8"/><rect class="cls-6" x="901.19" y="1534.72" width="3.66" height="35.8"/><rect class="cls-6" x="864.28" y="1534.71" width="3.66" height="35.8"/><rect class="cls-6" x="829.71" y="1534.71" width="3.66" height="35.8"/><rect class="cls-6" x="798.85" y="1534.7" width="3.66" height="35.8"/><rect class="cls-6" x="987.08" y="1534.73" width="3.66" height="35.8"/><rect class="cls-6" x="994.87" y="1534.73" width="3.66" height="35.8"/><rect class="cls-6" x="1002.39" y="1534.73" width="3.66" height="35.8"/><path class="cls-6" d="m1011.72,1534.86v35.55c-.45.08-.91.13-1.38.12h-2.29v-35.8s2.29,0,2.29,0c.47,0,.93.04,1.37.12Z"/><path class="cls-6" d="m1016.8,1538.18v28.91c-.89,1.31-2.17,2.34-3.66,2.92v-34.75c1.5.58,2.77,1.61,3.66,2.92Z"/><path class="cls-8" d="m1061.81,1507.56v20.21c0,1.61-.49,3.11-1.34,4.35-.89,1.31-2.16,2.34-3.66,2.91-.46.18-.93.31-1.43.4-.45.08-.9.12-1.37.12l-322.02-.05c-1.25,0-2.43-.3-3.48-.83-2.35-1.18-4.03-3.52-4.28-6.25,0-.1-.02-.21-.02-.32,0-.13,0-.27,0-.4v-20.22c0-.13,0-.27.01-.4.19-3.79,3.14-6.89,6.86-7.33.3-.04.61-.06.92-.06l322.02.05c.47,0,.93.04,1.37.13.49.09.97.22,1.42.4,1.5.58,2.77,1.61,3.66,2.92.84,1.24,1.34,2.74,1.34,4.35Z"/><path class="cls-6" d="m903.68,1535.54l-172.52-.03c-1.12,0-2.17-.3-3.11-.83-2.1-1.18-3.59-3.52-3.82-6.25,0-.1-.02-.21-.02-.32,0-.13,0-.27,0-.4v-20.22c0-.13,0-.27.01-.4.17-3.79,2.8-6.89,6.13-7.33.27-.04.54-.06.82-.06l151.33.02s0,.04.01.06c2.36,10.26,7.77,24.34,20.18,34.92.32.28.65.56.99.83Z"/><rect class="cls-6" x="1018.97" y="1499.76" width="3.66" height="35.8"/><rect class="cls-6" x="1006.58" y="1499.76" width="3.66" height="35.8"/><rect class="cls-6" x="991.72" y="1499.76" width="3.66" height="35.8"/><rect class="cls-6" x="968.95" y="1499.75" width="3.66" height="35.8"/><rect class="cls-6" x="944.87" y="1499.75" width="3.66" height="35.8"/><rect class="cls-6" x="907.96" y="1499.75" width="3.66" height="35.8"/><rect class="cls-6" x="873.39" y="1499.74" width="3.66" height="35.8"/><rect class="cls-6" x="842.53" y="1499.74" width="3.66" height="35.8"/><rect class="cls-6" x="1030.76" y="1499.76" width="3.66" height="35.8"/><rect class="cls-6" x="1038.55" y="1499.76" width="3.66" height="35.8"/><rect class="cls-6" x="1046.07" y="1499.77" width="3.66" height="35.8"/><path class="cls-6" d="m1055.4,1499.89v35.55c-.45.08-.91.12-1.38.12h-2.29s0-35.8,0-35.8h2.29c.47,0,.93.04,1.37.13Z"/><path class="cls-6" d="m1060.48,1503.21v28.92c-.89,1.31-2.17,2.34-3.66,2.91v-34.75c1.5.58,2.77,1.61,3.66,2.92Z"/><path class="cls-8" d="m1038.14,1471.81v20.22c0,1.61-.49,3.11-1.34,4.35-.89,1.31-2.16,2.34-3.66,2.91-.46.18-.93.31-1.43.4-.15.03-.3.05-.45.07-.08,0-.17.02-.25.03-.08,0-.17.01-.25.02-.14,0-.28.01-.41.01l-322.01-.05c-4.15,0-7.57-3.29-7.78-7.39,0-.13,0-.27,0-.4v-20.22c0-.13,0-.27.01-.4.21-4.1,3.63-7.39,7.78-7.39l322.01.05c.47,0,.93.04,1.37.12.49.09.97.22,1.43.4,1.49.58,2.77,1.61,3.66,2.92.85,1.25,1.33,2.74,1.33,4.35Z"/><path class="cls-6" d="m880.01,1499.8l-172.52-.03c-3.71,0-6.76-3.29-6.95-7.39,0-.13,0-.27,0-.4v-20.22c0-.13,0-.27.01-.4.19-4.1,3.24-7.39,6.95-7.39l151.33.02c2.41,10.52,8.02,25.06,21.11,35.75.02.02.05.04.07.06Z"/><rect class="cls-6" x="995.3" y="1464.02" width="3.66" height="35.8"/><rect class="cls-6" x="982.91" y="1464.01" width="3.66" height="35.8"/><rect class="cls-6" x="968.05" y="1464.01" width="3.66" height="35.8"/><rect class="cls-6" x="945.28" y="1464.01" width="3.66" height="35.8"/><rect class="cls-6" x="921.2" y="1464" width="3.66" height="35.8"/><rect class="cls-6" x="884.29" y="1464" width="3.66" height="35.8"/><rect class="cls-6" x="849.72" y="1463.99" width="3.66" height="35.8"/><rect class="cls-6" x="818.86" y="1463.99" width="3.66" height="35.8"/><rect class="cls-6" x="1007.09" y="1464.02" width="3.66" height="35.8"/><rect class="cls-6" x="1014.88" y="1464.02" width="3.66" height="35.8"/><rect class="cls-6" x="1022.4" y="1464.02" width="3.66" height="35.8"/><path class="cls-6" d="m1031.73,1464.14v35.55c-.45.08-.91.12-1.38.13h-2.29v-35.8h2.29c.47,0,.93.04,1.37.12Z"/><path class="cls-6" d="m1036.81,1467.46v28.91c-.89,1.31-2.17,2.34-3.66,2.92v-34.75c1.5.58,2.77,1.61,3.66,2.92Z"/><path class="cls-6" d="m839.95,1531.46l25.59-7.7-4.3-23.94s-19.23-15.59-22.41-35.82l-127.03,31.67v72.48h32.21v28.81h122.09v-26.43s-17.39-3.46-26.16-39.08Z"/><path class="cls-7" d="m1004.22,1168.54s123.82,99.15,167.32,243.15c0,0-29.65-110.3-167.32-243.15Z"/><path class="cls-7" d="m1053.29,1283.69s61.72,164.01,62.99,280.75c0,0,17.77-79.75-62.99-280.75Z"/><path class="cls-7" d="m1012.55,1274.53s29.33,116.67,31.67,162.67c0,0,1.67-62.67-31.67-162.67Z"/><path class="cls-7" d="m597.83,758.88s12.01.67,18.1,4.36c0,0-8.89,6.75-18.1-4.36Z"/><path class="cls-21" d="m2227.78,1615.85H4.78c-2.63,0-4.78-2.15-4.78-4.78h0c0-2.63,2.15-4.78,4.78-4.78h2223c2.63,0,4.78,2.15,4.78,4.78h0c0,2.63-2.15,4.78-4.78,4.78Z"/></g></svg>