<?xml version="1.0" encoding="UTF-8"?><svg id="Capa_2" xmlns="http://www.w3.org/2000/svg" xmlns:xlink="http://www.w3.org/1999/xlink" viewBox="0 0 158.28 54.84"><defs><style>.cls-1{fill:none;}.cls-2{clip-path:url(#clippath);}.cls-3{fill:#2eb3ab;}.cls-4{fill:#a9c82f;}.cls-5{fill:#472b75;}</style><clipPath id="clippath"><path class="cls-1" d="m.98,10.32c.23-.11.47-.18.71-.2.24-.03.48-.04.71-.04h2.72c.54,0,.92.15,1.15.46s.38.69.47,1.16l.57,3.29c.63-.72,1.3-1.4,2.01-2.05.71-.65,1.5-1.22,2.36-1.73.86-.5,1.82-.9,2.86-1.2,1.04-.3,2.21-.44,3.5-.44,1.63,0,3.19.21,4.68.63s2.87,1.02,4.15,1.78c1.29.76,2.45,1.68,3.49,2.75,1.04,1.07,1.94,2.26,2.68,3.57.75,1.31,1.32,2.72,1.73,4.23.41,1.51.61,3.08.61,4.72s-.2,3.21-.61,4.72c-.4,1.51-.98,2.92-1.73,4.23-.75,1.31-1.64,2.51-2.68,3.59-1.04,1.08-2.21,2-3.49,2.76-1.29.76-2.67,1.36-4.17,1.78-1.49.42-3.05.63-4.66.63-1.17,0-2.24-.13-3.22-.38-.98-.25-1.89-.6-2.72-1.04s-1.61-.95-2.32-1.54c-.71-.58-1.38-1.21-2.01-1.87v13.13c0,.43-.14.8-.41,1.11s-.67.46-1.21.46H1.68c-.38,0-.75-.14-1.12-.42-.37-.28-.55-.66-.55-1.15V11.67c0-.38.08-.67.26-.89s.41-.37.71-.46Zm26.72,16.93c0-1.42-.26-2.77-.77-4.06-.51-1.28-1.21-2.41-2.1-3.37-.89-.96-1.95-1.73-3.17-2.29-1.22-.57-2.54-.85-3.96-.85s-2.75.28-4,.84c-1.25.56-2.35,1.31-3.29,2.25-.94.94-1.7,2.04-2.26,3.3s-.86,2.59-.88,3.99v.19c0,1.44.27,2.8.82,4.1.55,1.29,1.29,2.43,2.24,3.4.94.97,2.05,1.74,3.32,2.32,1.27.58,2.62.86,4.06.86s2.74-.29,3.96-.86c1.22-.57,2.28-1.35,3.17-2.32.89-.97,1.59-2.1,2.1-3.4.51-1.29.77-2.66.77-4.1Z"/></clipPath></defs><g id="Capa_1-2"><path class="cls-5" d="m.97,10.33c.23-.11.47-.18.71-.2s.48-.04.71-.04h2.72c.54,0,.92.15,1.15.46s.38.69.47,1.16l.57,3.29c.63-.72,1.3-1.4,2.01-2.05.71-.65,1.5-1.22,2.36-1.73.86-.5,1.82-.9,2.86-1.2s2.21-.44,3.5-.44c1.64,0,3.2.21,4.68.63s2.87,1.02,4.15,1.78c1.28.76,2.45,1.68,3.49,2.75,1.04,1.07,1.94,2.26,2.68,3.57.75,1.31,1.32,2.72,1.73,4.23.4,1.51.61,3.08.61,4.72s-.2,3.21-.61,4.72-.98,2.92-1.73,4.23c-.75,1.31-1.64,2.51-2.68,3.59-1.04,1.08-2.21,2-3.49,2.76-1.29.76-2.67,1.36-4.17,1.78-1.49.42-3.05.63-4.66.63-1.17,0-2.24-.13-3.22-.38-.98-.25-1.89-.6-2.72-1.04-.84-.44-1.61-.95-2.32-1.54-.71-.58-1.38-1.21-2.01-1.87v13.13c0,.43-.13.8-.4,1.11s-.67.46-1.21.46H1.67c-.38,0-.75-.14-1.12-.42-.37-.28-.55-.66-.55-1.15V11.67c0-.38.08-.67.26-.89s.41-.37.71-.46Zm26.72,16.93c0-1.42-.26-2.77-.77-4.06-.51-1.28-1.21-2.41-2.1-3.37-.89-.96-1.95-1.73-3.17-2.29-1.22-.57-2.54-.85-3.96-.85s-2.75.28-4,.84c-1.25.56-2.35,1.31-3.29,2.25-.94.94-1.7,2.04-2.27,3.3-.57,1.26-.86,2.59-.88,3.99v.19c0,1.44.27,2.8.82,4.1.55,1.29,1.29,2.43,2.24,3.4.94.97,2.05,1.74,3.32,2.32,1.27.58,2.62.86,4.06.86s2.74-.29,3.96-.86c1.22-.57,2.28-1.35,3.17-2.32.89-.97,1.59-2.1,2.1-3.4.51-1.29.77-2.66.77-4.1Z"/><path class="cls-5" d="m39.53,1.62c0-.47.13-.85.38-1.16.25-.31.64-.46,1.16-.46h4.72c.36,0,.7.15,1.01.46s.47.69.47,1.16v41.17c0,.54-.15.94-.45,1.21-.3.27-.7.4-1.2.4h-4.5c-.58,0-.98-.13-1.23-.4s-.36-.67-.36-1.21V1.62Z"/><path class="cls-5" d="m87.12,42.82c0,.32-.07.59-.2.8-.13.21-.31.37-.53.49-.22.12-.46.2-.74.24s-.57.07-.88.07h-3.37c-.58,0-.98-.15-1.2-.46-.23-.31-.39-.69-.5-1.16l-.16-2.29c-.63.63-1.33,1.22-2.09,1.77-.76.55-1.59,1.02-2.47,1.43-.88.4-1.82.72-2.8.94-.99.22-2,.34-3.05.34-1.62,0-3.18-.21-4.68-.63-1.5-.42-2.91-1.02-4.22-1.78-1.31-.76-2.5-1.69-3.57-2.76-1.07-1.08-1.99-2.27-2.75-3.59-.76-1.31-1.36-2.72-1.78-4.23-.42-1.51-.63-3.08-.63-4.72s.21-3.21.63-4.72c.42-1.51,1.02-2.92,1.78-4.23.76-1.31,1.68-2.5,2.75-3.57s2.26-1.99,3.57-2.75c1.31-.76,2.72-1.36,4.22-1.78,1.5-.42,3.06-.63,4.68-.63,1.15,0,2.25.12,3.29.36s2.02.58,2.93,1.02,1.75.97,2.52,1.59,1.47,1.3,2.1,2.04l.38-2.89c.09-.32.18-.59.26-.8.08-.21.18-.37.3-.5.12-.13.26-.21.45-.26.18-.04.4-.07.67-.07h2.7c.29,0,.58.03.86.08.29.05.55.14.78.26.23.12.42.28.55.49.13.21.2.46.2.77v31.14Zm-28.04-15.56c0,1.44.25,2.8.75,4.08.5,1.29,1.2,2.41,2.1,3.38.9.97,1.95,1.74,3.17,2.31,1.21.57,2.54.85,3.98.85s2.82-.28,4.08-.85c1.27-.57,2.37-1.33,3.3-2.31s1.67-2.1,2.21-3.38c.54-1.28.81-2.65.81-4.08s-.27-2.77-.81-4.06c-.54-1.28-1.28-2.41-2.21-3.38s-2.04-1.74-3.3-2.32c-1.27-.57-2.63-.86-4.08-.86s-2.76.29-3.98.86c-1.21.58-2.27,1.35-3.17,2.32-.9.97-1.6,2.1-2.1,3.38-.5,1.29-.75,2.64-.75,4.06Z"/><path class="cls-5" d="m91.08,11.88c0-.54.16-.97.47-1.29s.75-.48,1.31-.48h24.37c.5,0,.93.13,1.29.39.36.26.54.68.54,1.25v3.48c0,.38-.04.68-.11.92-.07.23-.24.49-.51.75-3.02,3.47-6.02,6.92-8.99,10.35-2.98,3.43-5.97,6.88-8.99,10.35h16.93c.54,0,.97.14,1.29.43.32.29.49.75.49,1.38v3.1c0,.45-.16.88-.49,1.28-.32.4-.75.61-1.29.61h-24.94c-.5,0-.93-.19-1.29-.58-.36-.39-.54-.82-.54-1.31v-2.81c0-.2.02-.4.07-.61s.14-.4.28-.58c.79-.9,1.7-1.93,2.72-3.1s2.1-2.41,3.24-3.71c1.13-1.3,2.3-2.64,3.49-3.99,1.19-1.36,2.36-2.69,3.5-3.99,1.14-1.3,2.22-2.54,3.25-3.71s1.93-2.2,2.72-3.1h-17.04c-.56,0-.99-.15-1.31-.46s-.47-.78-.47-1.42v-3.14Z"/><g class="cls-2"><rect class="cls-3" x="-1.82" y="6.67" width="10.4" height="26.01"/><rect class="cls-4" x="-1.82" y="32.56" width="10.4" height="23.83"/></g><circle class="cls-4" cx="139.74" cy="27.5" r="18.55"/><path class="cls-5" d="m129.34,24.73c0-.79.4-1.19,1.19-1.19h5.53v-5.64c0-.83.43-1.24,1.29-1.24h4.4c.79,0,1.19.41,1.19,1.24v5.64h5.55c.32,0,.6.1.84.31.23.21.35.5.35.88v4.15c0,.31-.11.59-.32.86-.22.27-.5.4-.86.4h-5.55v5.69c0,.32-.1.6-.3.84-.2.23-.5.35-.89.35h-4.4c-.31,0-.6-.11-.88-.32-.28-.22-.42-.5-.42-.86v-5.69h-5.53c-.79,0-1.19-.42-1.19-1.27v-4.15Z"/></g></svg>